<?xml version="1.0" encoding="UTF-8"?>
<svg xmlns="http://www.w3.org/2000/svg" xmlns:xlink="http://www.w3.org/1999/xlink" width="474.64" height="306.16" viewBox="0 0 474.64 306.16">
<defs>
<g>
<g id="glyph-0-0">
<path d="M 2.464844 -0.519531 L 3.371094 -0.519531 C 4.316406 -0.519531 5.035156 -0.789062 5.542969 -1.328125 C 6.054688 -1.863281 6.300781 -2.632812 6.300781 -3.640625 C 6.300781 -4.648438 6.054688 -5.425781 5.542969 -5.953125 C 5.035156 -6.480469 4.316406 -6.75 3.371094 -6.75 L 2.464844 -6.75 Z M 0.546875 0 L 0.546875 -0.519531 L 1.476562 -0.519531 L 1.476562 -6.75 L 0.546875 -6.75 L 0.546875 -7.269531 L 3.441406 -7.269531 C 4.695312 -7.269531 5.675781 -6.949219 6.371094 -6.3125 C 7.070312 -5.675781 7.417969 -4.785156 7.417969 -3.640625 C 7.417969 -2.492188 7.070312 -1.605469 6.371094 -0.96875 C 5.664062 -0.320312 4.6875 0 3.441406 0 Z M 0.546875 0 "/>
</g>
<g id="glyph-0-1">
<path d="M 0.546875 0 L 0.546875 -0.519531 L 1.476562 -0.519531 L 1.476562 -6.75 L 0.546875 -6.75 L 0.546875 -7.269531 L 6.402344 -7.269531 L 6.402344 -5.65625 L 5.804688 -5.65625 L 5.804688 -6.671875 L 2.464844 -6.671875 L 2.464844 -4.238281 L 4.847656 -4.238281 L 4.847656 -5.144531 L 5.445312 -5.144531 L 5.445312 -2.734375 L 4.847656 -2.734375 L 4.847656 -3.640625 L 2.464844 -3.640625 L 2.464844 -0.597656 L 5.882812 -0.597656 L 5.882812 -1.617188 L 6.480469 -1.617188 L 6.480469 0 Z M 0.546875 0 "/>
</g>
<g id="glyph-0-2">
<path d="M 1.996094 -2.632812 L 4.667969 -2.632812 L 3.332031 -6.09375 Z M -0.0585938 0 L -0.0585938 -0.519531 L 0.578125 -0.519531 L 3.171875 -7.269531 L 3.988281 -7.269531 L 6.582031 -0.519531 L 7.300781 -0.519531 L 7.300781 0 L 4.65625 0 L 4.65625 -0.519531 L 5.464844 -0.519531 L 4.855469 -2.113281 L 1.796875 -2.113281 L 1.1875 -0.519531 L 1.984375 -0.519531 L 1.984375 0 Z M -0.0585938 0 "/>
</g>
<g id="glyph-0-3">
<path d="M 0.546875 0 L 0.546875 -0.519531 L 1.476562 -0.519531 L 1.476562 -6.75 L 0.5 -6.75 L 0.5 -7.269531 L 2.613281 -7.269531 L 5.164062 -2.09375 L 7.71875 -7.269531 L 9.703125 -7.269531 L 9.703125 -6.75 L 8.734375 -6.75 L 8.734375 -0.519531 L 9.664062 -0.519531 L 9.664062 0 L 6.820312 0 L 6.820312 -0.519531 L 7.75 -0.519531 L 7.75 -6.132812 L 5.253906 -1.066406 L 4.566406 -1.066406 L 2.074219 -6.132812 L 2.074219 -0.519531 L 3 -0.519531 L 3 0 Z M 0.546875 0 "/>
</g>
<g id="glyph-0-4">
<path d="M 4.089844 -0.378906 C 4.886719 -0.378906 5.484375 -0.648438 5.894531 -1.195312 C 6.300781 -1.746094 6.503906 -2.5625 6.503906 -3.628906 C 6.503906 -4.695312 6.300781 -5.503906 5.894531 -6.054688 C 5.484375 -6.601562 4.886719 -6.882812 4.089844 -6.882812 C 3.289062 -6.882812 2.691406 -6.601562 2.285156 -6.054688 C 1.875 -5.503906 1.675781 -4.695312 1.675781 -3.628906 C 1.675781 -2.5625 1.875 -1.746094 2.285156 -1.195312 C 2.691406 -0.648438 3.289062 -0.378906 4.089844 -0.378906 Z M 4.089844 0.140625 C 3.601562 0.140625 3.140625 0.0585938 2.722656 -0.101562 C 2.3125 -0.269531 1.945312 -0.507812 1.636719 -0.816406 C 1.265625 -1.1875 0.996094 -1.59375 0.828125 -2.054688 C 0.648438 -2.511719 0.558594 -3.042969 0.558594 -3.628906 C 0.558594 -4.21875 0.648438 -4.738281 0.828125 -5.195312 C 0.996094 -5.664062 1.265625 -6.074219 1.636719 -6.441406 C 1.953125 -6.761719 2.3125 -7 2.722656 -7.160156 C 3.132812 -7.320312 3.589844 -7.398438 4.089844 -7.398438 C 5.144531 -7.398438 6.003906 -7.050781 6.652344 -6.363281 C 7.300781 -5.675781 7.617188 -4.757812 7.617188 -3.628906 C 7.617188 -3.042969 7.53125 -2.523438 7.351562 -2.054688 C 7.171875 -1.585938 6.902344 -1.175781 6.542969 -0.816406 C 6.222656 -0.5 5.855469 -0.257812 5.445312 -0.101562 C 5.035156 0.0585938 4.585938 0.140625 4.089844 0.140625 Z M 4.089844 0.140625 "/>
</g>
<g id="glyph-0-5">
<path d="M 0.925781 -0.347656 L 0.925781 -2.003906 L 1.484375 -2.003906 C 1.496094 -1.457031 1.65625 -1.046875 1.964844 -0.777344 C 2.273438 -0.507812 2.734375 -0.378906 3.351562 -0.378906 C 3.929688 -0.378906 4.367188 -0.488281 4.667969 -0.71875 C 4.976562 -0.949219 5.125 -1.285156 5.125 -1.726562 C 5.125 -2.074219 5.035156 -2.34375 4.847656 -2.53125 C 4.667969 -2.722656 4.277344 -2.902344 3.691406 -3.082031 L 2.734375 -3.371094 C 2.035156 -3.582031 1.546875 -3.847656 1.257812 -4.160156 C 0.976562 -4.46875 0.835938 -4.90625 0.835938 -5.453125 C 0.835938 -6.074219 1.058594 -6.550781 1.496094 -6.890625 C 1.933594 -7.230469 2.554688 -7.398438 3.339844 -7.398438 C 3.679688 -7.398438 4.050781 -7.359375 4.449219 -7.289062 C 4.855469 -7.21875 5.285156 -7.109375 5.734375 -6.972656 L 5.734375 -5.425781 L 5.1875 -5.425781 C 5.136719 -5.933594 4.957031 -6.300781 4.667969 -6.53125 C 4.378906 -6.761719 3.949219 -6.882812 3.359375 -6.882812 C 2.851562 -6.882812 2.453125 -6.769531 2.183594 -6.5625 C 1.914062 -6.351562 1.785156 -6.054688 1.785156 -5.65625 C 1.785156 -5.304688 1.886719 -5.035156 2.085938 -4.835938 C 2.292969 -4.636719 2.722656 -4.4375 3.371094 -4.25 L 4.269531 -3.980469 C 4.925781 -3.78125 5.394531 -3.53125 5.675781 -3.222656 C 5.964844 -2.910156 6.101562 -2.503906 6.101562 -1.984375 C 6.101562 -1.277344 5.875 -0.746094 5.425781 -0.398438 C 4.976562 -0.0390625 4.296875 0.140625 3.410156 0.140625 C 3.011719 0.140625 2.601562 0.101562 2.183594 0.0195312 C 1.773438 -0.0585938 1.355469 -0.179688 0.925781 -0.347656 Z M 0.925781 -0.347656 "/>
</g>
<g id="glyph-0-6">
<path d="M 1.90625 0 L 1.90625 -0.519531 L 2.832031 -0.519531 L 2.832031 -6.691406 L 0.699219 -6.691406 L 0.699219 -5.554688 L 0.101562 -5.554688 L 0.101562 -7.269531 L 6.550781 -7.269531 L 6.550781 -5.554688 L 5.953125 -5.554688 L 5.953125 -6.691406 L 3.820312 -6.691406 L 3.820312 -0.519531 L 4.746094 -0.519531 L 4.746094 0 Z M 1.90625 0 "/>
</g>
<g id="glyph-0-7">
<path d="M 0.546875 0 L 0.546875 -0.519531 L 1.476562 -0.519531 L 1.476562 -6.75 L 0.546875 -6.75 L 0.546875 -7.269531 L 3.390625 -7.269531 L 3.390625 -6.75 L 2.464844 -6.75 L 2.464844 -0.597656 L 5.785156 -0.597656 L 5.785156 -1.816406 L 6.382812 -1.816406 L 6.382812 0 Z M 0.546875 0 "/>
</g>
<g id="glyph-0-8">
<path d="M 1.886719 0 L 1.886719 -0.519531 L 2.8125 -0.519531 L 2.8125 -3.132812 L 0.570312 -6.75 L -0.109375 -6.75 L -0.109375 -7.269531 L 2.59375 -7.269531 L 2.59375 -6.75 L 1.746094 -6.75 L 3.558594 -3.808594 L 5.375 -6.75 L 4.558594 -6.75 L 4.558594 -7.269531 L 6.671875 -7.269531 L 6.671875 -6.75 L 5.984375 -6.75 L 3.800781 -3.222656 L 3.800781 -0.519531 L 4.726562 -0.519531 L 4.726562 0 Z M 1.886719 0 "/>
</g>
<g id="glyph-0-9">
<path d="M 2.464844 -3.699219 L 3.75 -3.699219 C 4.238281 -3.699219 4.605469 -3.828125 4.855469 -4.089844 C 5.105469 -4.359375 5.234375 -4.738281 5.234375 -5.226562 C 5.234375 -5.722656 5.105469 -6.101562 4.855469 -6.363281 C 4.605469 -6.621094 4.238281 -6.75 3.75 -6.75 L 2.464844 -6.75 Z M 0.546875 0 L 0.546875 -0.519531 L 1.476562 -0.519531 L 1.476562 -6.75 L 0.546875 -6.75 L 0.546875 -7.269531 L 3.988281 -7.269531 C 4.71875 -7.269531 5.285156 -7.082031 5.714844 -6.710938 C 6.144531 -6.34375 6.351562 -5.855469 6.351562 -5.226562 C 6.351562 -4.597656 6.144531 -4.109375 5.714844 -3.738281 C 5.285156 -3.371094 4.71875 -3.179688 3.988281 -3.179688 L 2.464844 -3.179688 L 2.464844 -0.519531 L 3.589844 -0.519531 L 3.589844 0 Z M 0.546875 0 "/>
</g>
<g id="glyph-0-10">
<path d="M 4.777344 -3.609375 C 5.007812 -3.550781 5.195312 -3.441406 5.367188 -3.289062 C 5.523438 -3.140625 5.675781 -2.941406 5.804688 -2.671875 L 6.859375 -0.519531 L 7.75 -0.519531 L 7.75 0 L 6.035156 0 L 4.898438 -2.3125 C 4.675781 -2.761719 4.476562 -3.050781 4.296875 -3.179688 C 4.117188 -3.3125 3.871094 -3.378906 3.550781 -3.378906 L 2.464844 -3.378906 L 2.464844 -0.519531 L 3.492188 -0.519531 L 3.492188 0 L 0.546875 0 L 0.546875 -0.519531 L 1.476562 -0.519531 L 1.476562 -6.75 L 0.546875 -6.75 L 0.546875 -7.269531 L 4.238281 -7.269531 C 4.945312 -7.269531 5.484375 -7.101562 5.875 -6.761719 C 6.261719 -6.421875 6.453125 -5.945312 6.453125 -5.324219 C 6.453125 -4.828125 6.3125 -4.4375 6.023438 -4.148438 C 5.746094 -3.859375 5.324219 -3.679688 4.777344 -3.609375 Z M 2.464844 -3.898438 L 3.898438 -3.898438 C 4.386719 -3.898438 4.757812 -4.019531 4.984375 -4.25 C 5.214844 -4.476562 5.335938 -4.835938 5.335938 -5.324219 C 5.335938 -5.8125 5.214844 -6.171875 4.984375 -6.402344 C 4.757812 -6.632812 4.386719 -6.75 3.898438 -6.75 L 2.464844 -6.75 Z M 2.464844 -3.898438 "/>
</g>
<g id="glyph-0-11">
<path d="M 2.464844 -0.519531 L 3.390625 -0.519531 L 3.390625 0 L 0.546875 0 L 0.546875 -0.519531 L 1.476562 -0.519531 L 1.476562 -6.75 L 0.546875 -6.75 L 0.546875 -7.269531 L 3.390625 -7.269531 L 3.390625 -6.75 L 2.464844 -6.75 Z M 2.464844 -0.519531 "/>
</g>
<g id="glyph-0-12">
<path d="M 1.746094 -6.75 L 3.890625 -1.167969 L 6.035156 -6.75 L 5.214844 -6.75 L 5.214844 -7.269531 L 7.351562 -7.269531 L 7.351562 -6.75 L 6.640625 -6.75 L 4.050781 0 L 3.210938 0 L 0.628906 -6.75 L -0.101562 -6.75 L -0.101562 -7.269531 L 2.554688 -7.269531 L 2.554688 -6.75 Z M 1.746094 -6.75 "/>
</g>
<g id="glyph-0-13">
<path d="M 3.171875 -0.339844 C 3.671875 -0.339844 4.039062 -0.609375 4.289062 -1.15625 C 4.539062 -1.707031 4.65625 -2.523438 4.65625 -3.628906 C 4.65625 -4.738281 4.539062 -5.554688 4.289062 -6.101562 C 4.039062 -6.652344 3.671875 -6.921875 3.171875 -6.921875 C 2.671875 -6.921875 2.304688 -6.652344 2.054688 -6.101562 C 1.804688 -5.554688 1.683594 -4.738281 1.683594 -3.628906 C 1.683594 -2.523438 1.804688 -1.707031 2.054688 -1.15625 C 2.304688 -0.609375 2.671875 -0.339844 3.171875 -0.339844 Z M 3.171875 0.140625 C 2.382812 0.140625 1.765625 -0.191406 1.316406 -0.847656 C 0.878906 -1.515625 0.65625 -2.441406 0.65625 -3.628906 C 0.65625 -4.816406 0.878906 -5.746094 1.316406 -6.414062 C 1.765625 -7.070312 2.382812 -7.398438 3.171875 -7.398438 C 3.960938 -7.398438 4.578125 -7.070312 5.015625 -6.414062 C 5.464844 -5.746094 5.683594 -4.816406 5.683594 -3.628906 C 5.683594 -2.441406 5.464844 -1.515625 5.015625 -0.847656 C 4.578125 -0.191406 3.960938 0.140625 3.171875 0.140625 Z M 3.171875 0.140625 "/>
</g>
<g id="glyph-0-14">
<path d="M 5.015625 -7.269531 L 5.015625 -6.472656 L 1.683594 -6.472656 L 1.683594 -4.386719 C 1.855469 -4.507812 2.042969 -4.597656 2.273438 -4.648438 C 2.503906 -4.707031 2.753906 -4.738281 3.03125 -4.738281 C 3.820312 -4.738281 4.4375 -4.519531 4.898438 -4.089844 C 5.34375 -3.648438 5.574219 -3.050781 5.574219 -2.304688 C 5.574219 -1.535156 5.34375 -0.925781 4.886719 -0.5 C 4.429688 -0.0703125 3.78125 0.140625 2.953125 0.140625 C 2.621094 0.140625 2.273438 0.101562 1.925781 0.0195312 C 1.574219 -0.0585938 1.214844 -0.179688 0.847656 -0.347656 L 0.847656 -1.765625 L 1.394531 -1.765625 C 1.425781 -1.296875 1.574219 -0.949219 1.835938 -0.707031 C 2.105469 -0.457031 2.472656 -0.339844 2.953125 -0.339844 C 3.460938 -0.339844 3.859375 -0.507812 4.136719 -0.847656 C 4.40625 -1.1875 4.546875 -1.675781 4.546875 -2.304688 C 4.546875 -2.933594 4.40625 -3.421875 4.136719 -3.75 C 3.871094 -4.089844 3.46875 -4.257812 2.953125 -4.257812 C 2.664062 -4.257812 2.402344 -4.207031 2.175781 -4.097656 C 1.953125 -4 1.753906 -3.839844 1.585938 -3.621094 L 1.167969 -3.621094 L 1.167969 -7.269531 Z M 5.015625 -7.269531 "/>
</g>
<g id="glyph-0-15">
<path d="M 1.417969 0 L 1.417969 -0.519531 L 2.683594 -0.519531 L 2.683594 -6.5625 L 1.214844 -5.613281 L 1.214844 -6.253906 L 2.992188 -7.398438 L 3.660156 -7.398438 L 3.660156 -0.519531 L 4.925781 -0.519531 L 4.925781 0 Z M 1.417969 0 "/>
</g>
<g id="glyph-0-16">
<path d="M 1.277344 -5.535156 L 0.726562 -5.535156 L 0.726562 -6.832031 C 1.078125 -7.019531 1.425781 -7.160156 1.773438 -7.261719 C 2.125 -7.351562 2.472656 -7.398438 2.8125 -7.398438 C 3.570312 -7.398438 4.167969 -7.21875 4.605469 -6.851562 C 5.046875 -6.480469 5.265625 -5.984375 5.265625 -5.355469 C 5.265625 -4.648438 4.765625 -3.789062 3.769531 -2.800781 C 3.699219 -2.734375 3.640625 -2.671875 3.601562 -2.632812 L 1.765625 -0.796875 L 4.796875 -0.796875 L 4.796875 -1.695312 L 5.367188 -1.695312 L 5.367188 0 L 0.679688 0 L 0.679688 -0.527344 L 2.882812 -2.734375 C 3.371094 -3.222656 3.71875 -3.660156 3.929688 -4.070312 C 4.136719 -4.476562 4.238281 -4.90625 4.238281 -5.355469 C 4.238281 -5.84375 4.109375 -6.234375 3.847656 -6.503906 C 3.601562 -6.78125 3.25 -6.921875 2.800781 -6.921875 C 2.332031 -6.921875 1.972656 -6.800781 1.726562 -6.570312 C 1.476562 -6.34375 1.328125 -6.003906 1.277344 -5.535156 Z M 1.277344 -5.535156 "/>
</g>
<g id="glyph-0-17">
<path d="M 0.96875 -6.960938 C 1.347656 -7.109375 1.714844 -7.21875 2.0625 -7.289062 C 2.414062 -7.359375 2.734375 -7.398438 3.042969 -7.398438 C 3.75 -7.398438 4.308594 -7.25 4.707031 -6.941406 C 5.105469 -6.632812 5.304688 -6.214844 5.304688 -5.664062 C 5.304688 -5.226562 5.164062 -4.855469 4.898438 -4.566406 C 4.617188 -4.277344 4.226562 -4.078125 3.71875 -3.96875 C 4.316406 -3.878906 4.777344 -3.671875 5.105469 -3.320312 C 5.433594 -2.972656 5.605469 -2.511719 5.605469 -1.964844 C 5.605469 -1.285156 5.375 -0.769531 4.917969 -0.398438 C 4.46875 -0.0390625 3.808594 0.140625 2.953125 0.140625 C 2.574219 0.140625 2.203125 0.101562 1.835938 0.0195312 C 1.476562 -0.0585938 1.117188 -0.179688 0.757812 -0.347656 L 0.757812 -1.765625 L 1.304688 -1.765625 C 1.335938 -1.296875 1.496094 -0.9375 1.773438 -0.699219 C 2.0625 -0.457031 2.464844 -0.339844 2.972656 -0.339844 C 3.46875 -0.339844 3.859375 -0.480469 4.148438 -0.769531 C 4.4375 -1.058594 4.578125 -1.457031 4.578125 -1.953125 C 4.578125 -2.523438 4.429688 -2.960938 4.136719 -3.25 C 3.839844 -3.539062 3.402344 -3.691406 2.832031 -3.691406 L 2.375 -3.691406 L 2.375 -4.1875 L 2.613281 -4.1875 C 3.179688 -4.1875 3.609375 -4.308594 3.890625 -4.539062 C 4.179688 -4.777344 4.316406 -5.136719 4.316406 -5.605469 C 4.316406 -6.035156 4.199219 -6.351562 3.96875 -6.582031 C 3.738281 -6.8125 3.402344 -6.921875 2.960938 -6.921875 C 2.523438 -6.921875 2.183594 -6.820312 1.933594 -6.613281 C 1.695312 -6.402344 1.554688 -6.09375 1.515625 -5.683594 L 0.96875 -5.683594 Z M 0.96875 -6.960938 "/>
</g>
<g id="glyph-1-0">
<path d="M -0.347656 -0.925781 L -2.003906 -0.925781 L -2.003906 -1.484375 C -1.457031 -1.496094 -1.046875 -1.65625 -0.777344 -1.964844 C -0.507812 -2.273438 -0.378906 -2.734375 -0.378906 -3.351562 C -0.378906 -3.929688 -0.488281 -4.367188 -0.71875 -4.667969 C -0.949219 -4.976562 -1.285156 -5.125 -1.726562 -5.125 C -2.074219 -5.125 -2.34375 -5.035156 -2.53125 -4.847656 C -2.722656 -4.667969 -2.902344 -4.277344 -3.082031 -3.691406 L -3.371094 -2.734375 C -3.582031 -2.035156 -3.847656 -1.546875 -4.160156 -1.257812 C -4.46875 -0.976562 -4.90625 -0.835938 -5.453125 -0.835938 C -6.074219 -0.835938 -6.550781 -1.058594 -6.890625 -1.496094 C -7.230469 -1.933594 -7.398438 -2.554688 -7.398438 -3.339844 C -7.398438 -3.679688 -7.359375 -4.050781 -7.289062 -4.449219 C -7.21875 -4.855469 -7.109375 -5.285156 -6.972656 -5.734375 L -5.425781 -5.734375 L -5.425781 -5.1875 C -5.933594 -5.136719 -6.300781 -4.957031 -6.53125 -4.667969 C -6.761719 -4.378906 -6.882812 -3.949219 -6.882812 -3.359375 C -6.882812 -2.851562 -6.769531 -2.453125 -6.5625 -2.183594 C -6.351562 -1.914062 -6.054688 -1.785156 -5.65625 -1.785156 C -5.304688 -1.785156 -5.035156 -1.886719 -4.835938 -2.085938 C -4.636719 -2.292969 -4.4375 -2.722656 -4.25 -3.371094 L -3.980469 -4.269531 C -3.78125 -4.925781 -3.53125 -5.394531 -3.222656 -5.675781 C -2.910156 -5.964844 -2.503906 -6.101562 -1.984375 -6.101562 C -1.277344 -6.101562 -0.746094 -5.875 -0.398438 -5.425781 C -0.0390625 -4.976562 0.140625 -4.296875 0.140625 -3.410156 C 0.140625 -3.011719 0.101562 -2.601562 0.0195312 -2.183594 C -0.0585938 -1.773438 -0.179688 -1.355469 -0.347656 -0.925781 Z M -0.347656 -0.925781 "/>
</g>
<g id="glyph-1-1">
<path d="M 0 -0.410156 L -0.519531 -0.410156 L -0.519531 -1.214844 L -7.0625 -1.214844 L -7.0625 -0.359375 L -7.578125 -0.359375 L -7.578125 -2.113281 L -4.257812 -2.113281 C -4.605469 -2.285156 -4.867188 -2.492188 -5.046875 -2.753906 C -5.226562 -3.023438 -5.316406 -3.332031 -5.316406 -3.679688 C -5.316406 -4.25 -5.15625 -4.675781 -4.828125 -4.945312 C -4.496094 -5.214844 -3.988281 -5.34375 -3.289062 -5.34375 L -0.519531 -5.34375 L -0.519531 -6.144531 L 0 -6.144531 L 0 -3.671875 L -0.519531 -3.671875 L -0.519531 -4.449219 L -3.011719 -4.449219 C -3.640625 -4.449219 -4.078125 -4.367188 -4.308594 -4.207031 C -4.539062 -4.058594 -4.65625 -3.78125 -4.65625 -3.390625 C -4.65625 -2.972656 -4.507812 -2.652344 -4.199219 -2.441406 C -3.898438 -2.222656 -3.460938 -2.113281 -2.882812 -2.113281 L -0.519531 -2.113281 L -0.519531 -2.890625 L 0 -2.890625 Z M 0 -0.410156 "/>
</g>
<g id="glyph-1-2">
<path d="M -1.625 -3.96875 L -2.722656 -3.96875 L -2.722656 -2.8125 C -2.722656 -2.363281 -2.621094 -2.035156 -2.433594 -1.824219 C -2.242188 -1.605469 -1.945312 -1.496094 -1.554688 -1.496094 C -1.195312 -1.496094 -0.90625 -1.605469 -0.699219 -1.824219 C -0.488281 -2.042969 -0.378906 -2.34375 -0.378906 -2.722656 C -0.378906 -3.089844 -0.5 -3.390625 -0.726562 -3.621094 C -0.957031 -3.847656 -1.257812 -3.96875 -1.625 -3.96875 Z M -3.230469 -4.867188 L -0.519531 -4.867188 L -0.519531 -5.664062 L 0 -5.664062 L 0 -3.96875 L -0.558594 -3.96875 C -0.320312 -3.769531 -0.140625 -3.539062 -0.03125 -3.28125 C 0.078125 -3.023438 0.140625 -2.722656 0.140625 -2.375 C 0.140625 -1.796875 -0.0117188 -1.335938 -0.320312 -1.007812 C -0.628906 -0.667969 -1.039062 -0.5 -1.554688 -0.5 C -2.085938 -0.5 -2.503906 -0.6875 -2.800781 -1.078125 C -3.089844 -1.464844 -3.242188 -2.003906 -3.242188 -2.710938 L -3.242188 -3.96875 L -3.601562 -3.96875 C -3.988281 -3.96875 -4.296875 -3.847656 -4.507812 -3.609375 C -4.726562 -3.371094 -4.835938 -3.03125 -4.835938 -2.601562 C -4.835938 -2.253906 -4.757812 -1.964844 -4.585938 -1.753906 C -4.429688 -1.546875 -4.1875 -1.40625 -3.871094 -1.355469 L -3.871094 -0.898438 L -4.917969 -0.898438 C -5.046875 -1.207031 -5.144531 -1.515625 -5.214844 -1.804688 C -5.285156 -2.09375 -5.316406 -2.382812 -5.316406 -2.664062 C -5.316406 -3.378906 -5.136719 -3.929688 -4.777344 -4.296875 C -4.429688 -4.675781 -3.910156 -4.867188 -3.230469 -4.867188 Z M -3.230469 -4.867188 "/>
</g>
<g id="glyph-1-3">
<path d="M -5.1875 -4.765625 L -3.890625 -4.765625 L -3.890625 -4.25 C -4.148438 -4.238281 -4.339844 -4.167969 -4.46875 -4.039062 C -4.597656 -3.910156 -4.65625 -3.730469 -4.65625 -3.480469 C -4.65625 -3.042969 -4.507812 -2.703125 -4.199219 -2.464844 C -3.890625 -2.234375 -3.449219 -2.113281 -2.882812 -2.113281 L -0.519531 -2.113281 L -0.519531 -3.152344 L 0 -3.152344 L 0 -0.410156 L -0.519531 -0.410156 L -0.519531 -1.214844 L -4.667969 -1.214844 L -4.667969 -0.359375 L -5.175781 -0.359375 L -5.175781 -2.113281 L -4.257812 -2.113281 C -4.617188 -2.285156 -4.886719 -2.511719 -5.054688 -2.792969 C -5.226562 -3.0625 -5.316406 -3.402344 -5.316406 -3.800781 C -5.316406 -3.949219 -5.304688 -4.097656 -5.285156 -4.257812 C -5.253906 -4.417969 -5.226562 -4.585938 -5.1875 -4.765625 Z M -5.1875 -4.765625 "/>
</g>
<g id="glyph-1-4">
<path d="M -2.492188 -5.40625 L -2.492188 -1.546875 L -2.453125 -1.546875 C -1.753906 -1.546875 -1.226562 -1.675781 -0.867188 -1.933594 C -0.519531 -2.203125 -0.339844 -2.59375 -0.339844 -3.101562 C -0.339844 -3.492188 -0.4375 -3.820312 -0.648438 -4.070312 C -0.859375 -4.316406 -1.15625 -4.496094 -1.566406 -4.597656 L -1.566406 -5.316406 C -0.996094 -5.175781 -0.578125 -4.917969 -0.289062 -4.527344 C 0 -4.136719 0.140625 -3.640625 0.140625 -3.011719 C 0.140625 -2.253906 -0.109375 -1.644531 -0.609375 -1.1875 C -1.105469 -0.726562 -1.765625 -0.5 -2.59375 -0.5 C -3.410156 -0.5 -4.070312 -0.726562 -4.566406 -1.175781 C -5.066406 -1.625 -5.316406 -2.222656 -5.316406 -2.953125 C -5.316406 -3.738281 -5.074219 -4.339844 -4.585938 -4.757812 C -4.109375 -5.175781 -3.410156 -5.394531 -2.492188 -5.40625 Z M -3.011719 -4.347656 C -3.621094 -4.328125 -4.070312 -4.199219 -4.367188 -3.960938 C -4.675781 -3.730469 -4.835938 -3.390625 -4.835938 -2.953125 C -4.835938 -2.542969 -4.675781 -2.214844 -4.367188 -1.972656 C -4.058594 -1.746094 -3.609375 -1.59375 -3.011719 -1.546875 Z M -3.011719 -4.347656 "/>
</g>
<g id="glyph-1-5">
</g>
<g id="glyph-1-6">
<path d="M -0.339844 -3 C -0.339844 -3.480469 -0.527344 -3.839844 -0.90625 -4.089844 C -1.285156 -4.339844 -1.84375 -4.457031 -2.59375 -4.457031 C -3.332031 -4.457031 -3.890625 -4.339844 -4.269531 -4.089844 C -4.648438 -3.839844 -4.835938 -3.480469 -4.835938 -3 C -4.835938 -2.523438 -4.648438 -2.152344 -4.269531 -1.90625 C -3.890625 -1.664062 -3.332031 -1.546875 -2.59375 -1.546875 C -1.84375 -1.546875 -1.285156 -1.664062 -0.90625 -1.914062 C -0.527344 -2.164062 -0.339844 -2.523438 -0.339844 -3 Z M 0.140625 -3 C 0.140625 -2.253906 -0.109375 -1.644531 -0.609375 -1.1875 C -1.105469 -0.726562 -1.765625 -0.5 -2.59375 -0.5 C -3.421875 -0.5 -4.078125 -0.726562 -4.566406 -1.175781 C -5.066406 -1.636719 -5.316406 -2.242188 -5.316406 -3 C -5.316406 -3.757812 -5.066406 -4.367188 -4.566406 -4.816406 C -4.078125 -5.277344 -3.421875 -5.503906 -2.59375 -5.503906 C -1.765625 -5.503906 -1.105469 -5.277344 -0.609375 -4.816406 C -0.109375 -4.367188 0.140625 -3.757812 0.140625 -3 Z M 0.140625 -3 "/>
</g>
<g id="glyph-1-7">
<path d="M -6.351562 -4.289062 L -6.351562 -3.820312 C -6.601562 -3.808594 -6.78125 -3.738281 -6.910156 -3.609375 C -7.039062 -3.480469 -7.101562 -3.28125 -7.101562 -3.023438 C -7.101562 -2.691406 -7.011719 -2.453125 -6.820312 -2.3125 C -6.640625 -2.183594 -6.3125 -2.113281 -5.84375 -2.113281 L -5.175781 -2.113281 L -5.175781 -3.558594 L -4.65625 -3.558594 L -4.65625 -2.113281 L -0.519531 -2.113281 L -0.519531 -3.261719 L 0 -3.261719 L 0 -0.359375 L -0.519531 -0.359375 L -0.519531 -1.214844 L -4.65625 -1.214844 L -4.65625 -0.359375 L -5.175781 -0.359375 L -5.175781 -1.214844 L -5.824219 -1.214844 C -6.402344 -1.214844 -6.839844 -1.367188 -7.128906 -1.664062 C -7.429688 -1.964844 -7.578125 -2.402344 -7.578125 -2.992188 C -7.578125 -3.210938 -7.558594 -3.429688 -7.519531 -3.640625 C -7.480469 -3.859375 -7.417969 -4.078125 -7.339844 -4.289062 Z M -6.351562 -4.289062 "/>
</g>
<g id="glyph-1-8">
<path d="M -1.554688 -5.125 C -1.007812 -4.996094 -0.578125 -4.757812 -0.289062 -4.398438 C 0 -4.039062 0.140625 -3.570312 0.140625 -3 C 0.140625 -2.253906 -0.109375 -1.644531 -0.609375 -1.1875 C -1.105469 -0.726562 -1.765625 -0.5 -2.59375 -0.5 C -3.421875 -0.5 -4.078125 -0.726562 -4.566406 -1.1875 C -5.066406 -1.644531 -5.316406 -2.253906 -5.316406 -3 C -5.316406 -3.332031 -5.277344 -3.648438 -5.195312 -3.980469 C -5.125 -4.308594 -5.007812 -4.628906 -4.855469 -4.957031 L -3.53125 -4.957031 L -3.53125 -4.4375 C -3.980469 -4.367188 -4.316406 -4.21875 -4.527344 -3.988281 C -4.738281 -3.757812 -4.835938 -3.441406 -4.835938 -3.011719 C -4.835938 -2.523438 -4.648438 -2.164062 -4.269531 -1.914062 C -3.898438 -1.664062 -3.339844 -1.546875 -2.59375 -1.546875 C -1.84375 -1.546875 -1.277344 -1.664062 -0.90625 -1.90625 C -0.527344 -2.152344 -0.339844 -2.523438 -0.339844 -3.011719 C -0.339844 -3.402344 -0.4375 -3.710938 -0.636719 -3.9375 C -0.847656 -4.167969 -1.148438 -4.316406 -1.554688 -4.40625 Z M -1.554688 -5.125 "/>
</g>
<g id="glyph-1-9">
<path d="M -0.519531 -2.042969 L -0.519531 -2.890625 L 0 -2.890625 L 0 -0.289062 L -0.519531 -0.289062 L -0.519531 -1.148438 L -7.0625 -1.148438 L -7.0625 -0.289062 L -7.578125 -0.289062 L -7.578125 -2.042969 Z M -0.519531 -2.042969 "/>
</g>
<g id="glyph-1-10">
<path d="M 0 -0.410156 L -0.519531 -0.410156 L -0.519531 -1.214844 L -4.65625 -1.214844 L -4.65625 -0.359375 L -5.175781 -0.359375 L -5.175781 -2.113281 L -4.257812 -2.113281 C -4.605469 -2.285156 -4.867188 -2.492188 -5.046875 -2.753906 C -5.226562 -3.023438 -5.316406 -3.332031 -5.316406 -3.679688 C -5.316406 -4.25 -5.15625 -4.675781 -4.828125 -4.945312 C -4.496094 -5.214844 -3.988281 -5.34375 -3.289062 -5.34375 L -0.519531 -5.34375 L -0.519531 -6.144531 L 0 -6.144531 L 0 -3.671875 L -0.519531 -3.671875 L -0.519531 -4.449219 L -3.011719 -4.449219 C -3.640625 -4.449219 -4.078125 -4.367188 -4.308594 -4.207031 C -4.546875 -4.058594 -4.667969 -3.78125 -4.667969 -3.390625 C -4.667969 -2.972656 -4.519531 -2.652344 -4.207031 -2.441406 C -3.898438 -2.222656 -3.460938 -2.113281 -2.882812 -2.113281 L -0.519531 -2.113281 L -0.519531 -2.890625 L 0 -2.890625 Z M 0 -0.410156 "/>
</g>
<g id="glyph-1-11">
<path d="M -4.65625 -5.234375 L -0.109375 -5.234375 C 0.636719 -5.234375 1.207031 -5.027344 1.605469 -4.617188 C 2.015625 -4.207031 2.214844 -3.628906 2.214844 -2.871094 C 2.214844 -2.53125 2.183594 -2.203125 2.125 -1.894531 C 2.0625 -1.585938 1.972656 -1.285156 1.84375 -0.996094 L 0.757812 -0.996094 L 0.757812 -1.464844 C 1.097656 -1.527344 1.347656 -1.664062 1.496094 -1.875 C 1.65625 -2.09375 1.734375 -2.402344 1.734375 -2.8125 C 1.734375 -3.339844 1.585938 -3.71875 1.285156 -3.96875 C 0.988281 -4.21875 0.519531 -4.339844 -0.109375 -4.339844 L -0.808594 -4.339844 C -0.480469 -4.167969 -0.238281 -3.9375 -0.0898438 -3.671875 C 0.0585938 -3.402344 0.140625 -3.0625 0.140625 -2.664062 C 0.140625 -2.023438 -0.109375 -1.507812 -0.617188 -1.097656 C -1.125 -0.699219 -1.785156 -0.5 -2.59375 -0.5 C -3.402344 -0.5 -4.058594 -0.699219 -4.566406 -1.097656 C -5.066406 -1.507812 -5.316406 -2.023438 -5.316406 -2.664062 C -5.316406 -3.0625 -5.234375 -3.402344 -5.085938 -3.671875 C -4.9375 -3.9375 -4.695312 -4.167969 -4.367188 -4.339844 L -5.175781 -4.339844 L -5.175781 -6.09375 L -4.65625 -6.09375 Z M -2.84375 -4.339844 C -3.460938 -4.339844 -3.9375 -4.21875 -4.269531 -3.980469 C -4.597656 -3.738281 -4.757812 -3.390625 -4.757812 -2.941406 C -4.757812 -2.484375 -4.578125 -2.132812 -4.207031 -1.894531 C -3.847656 -1.664062 -3.3125 -1.546875 -2.59375 -1.546875 C -1.875 -1.546875 -1.335938 -1.664062 -0.96875 -1.894531 C -0.597656 -2.132812 -0.417969 -2.484375 -0.417969 -2.941406 C -0.417969 -3.390625 -0.578125 -3.738281 -0.90625 -3.980469 C -1.238281 -4.21875 -1.707031 -4.339844 -2.332031 -4.339844 Z M -2.84375 -4.339844 "/>
</g>
<g id="glyph-1-12">
<path d="M 0 -2.464844 L -4.65625 -0.558594 L -4.65625 0.03125 L -5.175781 0.03125 L -5.175781 -2.355469 L -4.65625 -2.355469 L -4.65625 -1.527344 L -1.097656 -2.980469 L -4.65625 -4.4375 L -4.65625 -3.660156 L -5.175781 -3.660156 L -5.175781 -5.605469 L -4.65625 -5.605469 L -4.65625 -5.027344 L 0 -3.121094 Z M 0 -2.464844 "/>
</g>
<g id="glyph-1-13">
<path d="M -6.78125 -0.96875 C -6.929688 -0.96875 -7.0625 -1.015625 -7.171875 -1.125 C -7.28125 -1.238281 -7.339844 -1.375 -7.339844 -1.527344 C -7.339844 -1.675781 -7.28125 -1.796875 -7.171875 -1.90625 C -7.0625 -2.015625 -6.929688 -2.074219 -6.78125 -2.074219 C -6.632812 -2.074219 -6.503906 -2.023438 -6.390625 -1.914062 C -6.28125 -1.804688 -6.234375 -1.675781 -6.234375 -1.527344 C -6.234375 -1.375 -6.28125 -1.238281 -6.390625 -1.125 C -6.503906 -1.015625 -6.632812 -0.96875 -6.78125 -0.96875 Z M -0.519531 -2.113281 L -0.519531 -2.960938 L 0 -2.960938 L 0 -0.359375 L -0.519531 -0.359375 L -0.519531 -1.214844 L -4.65625 -1.214844 L -4.65625 -0.359375 L -5.175781 -0.359375 L -5.175781 -2.113281 Z M -0.519531 -2.113281 "/>
</g>
<g id="glyph-1-14">
<path d="M -0.519531 -1.148438 L -7.0625 -1.148438 L -7.0625 -0.289062 L -7.578125 -0.289062 L -7.578125 -2.042969 L -4.367188 -2.042969 C -4.695312 -2.214844 -4.9375 -2.441406 -5.085938 -2.710938 C -5.234375 -2.980469 -5.316406 -3.320312 -5.316406 -3.71875 C -5.316406 -4.359375 -5.066406 -4.875 -4.566406 -5.277344 C -4.058594 -5.683594 -3.402344 -5.882812 -2.59375 -5.882812 C -1.785156 -5.882812 -1.125 -5.683594 -0.617188 -5.277344 C -0.109375 -4.875 0.140625 -4.359375 0.140625 -3.71875 C 0.140625 -3.320312 0.0585938 -2.980469 -0.0898438 -2.710938 C -0.238281 -2.441406 -0.480469 -2.214844 -0.808594 -2.042969 L 0 -2.042969 L 0 -0.289062 L -0.519531 -0.289062 Z M -2.332031 -2.042969 C -1.707031 -2.042969 -1.238281 -2.164062 -0.90625 -2.402344 C -0.578125 -2.644531 -0.417969 -2.992188 -0.417969 -3.441406 C -0.417969 -3.898438 -0.597656 -4.25 -0.96875 -4.476562 C -1.335938 -4.71875 -1.875 -4.835938 -2.59375 -4.835938 C -3.3125 -4.835938 -3.847656 -4.71875 -4.207031 -4.476562 C -4.578125 -4.25 -4.757812 -3.898438 -4.757812 -3.441406 C -4.757812 -2.992188 -4.597656 -2.644531 -4.269531 -2.402344 C -3.9375 -2.164062 -3.460938 -2.042969 -2.84375 -2.042969 Z M -2.332031 -2.042969 "/>
</g>
<g id="glyph-1-15">
<path d="M -0.289062 -0.558594 L -1.496094 -0.558594 L -1.496094 -1.078125 C -1.105469 -1.085938 -0.816406 -1.207031 -0.628906 -1.4375 C -0.4375 -1.664062 -0.339844 -2.003906 -0.339844 -2.453125 C -0.339844 -2.863281 -0.417969 -3.160156 -0.570312 -3.371094 C -0.71875 -3.582031 -0.9375 -3.691406 -1.226562 -3.691406 C -1.457031 -3.691406 -1.636719 -3.609375 -1.773438 -3.460938 C -1.914062 -3.3125 -2.0625 -2.980469 -2.222656 -2.484375 L -2.441406 -1.835938 C -2.59375 -1.386719 -2.773438 -1.066406 -2.980469 -0.867188 C -3.191406 -0.667969 -3.46875 -0.570312 -3.800781 -0.570312 C -4.269531 -0.570312 -4.648438 -0.738281 -4.917969 -1.085938 C -5.1875 -1.4375 -5.316406 -1.925781 -5.316406 -2.53125 C -5.316406 -2.800781 -5.277344 -3.089844 -5.207031 -3.390625 C -5.136719 -3.699219 -5.035156 -4.007812 -4.898438 -4.328125 L -3.769531 -4.328125 L -3.769531 -3.808594 C -4.097656 -3.800781 -4.367188 -3.679688 -4.558594 -3.460938 C -4.746094 -3.242188 -4.835938 -2.941406 -4.835938 -2.5625 C -4.835938 -2.183594 -4.765625 -1.894531 -4.636719 -1.707031 C -4.507812 -1.515625 -4.308594 -1.417969 -4.039062 -1.417969 C -3.820312 -1.417969 -3.640625 -1.484375 -3.511719 -1.636719 C -3.378906 -1.785156 -3.25 -2.074219 -3.113281 -2.511719 L -2.890625 -3.222656 C -2.742188 -3.710938 -2.542969 -4.070312 -2.3125 -4.277344 C -2.085938 -4.496094 -1.796875 -4.605469 -1.4375 -4.605469 C -0.949219 -4.605469 -0.558594 -4.417969 -0.277344 -4.039062 C 0 -3.671875 0.140625 -3.152344 0.140625 -2.492188 C 0.140625 -2.164062 0.101562 -1.835938 0.03125 -1.515625 C -0.0390625 -1.195312 -0.140625 -0.878906 -0.289062 -0.558594 Z M -0.289062 -0.558594 "/>
</g>
<g id="glyph-1-16">
<path d="M 1.554688 -3.179688 C 1.207031 -2.394531 0.636719 -1.796875 -0.128906 -1.394531 C -0.898438 -0.988281 -1.855469 -0.789062 -3.011719 -0.789062 C -4.167969 -0.789062 -5.125 -0.988281 -5.894531 -1.394531 C -6.660156 -1.796875 -7.230469 -2.394531 -7.578125 -3.179688 L -7.101562 -3.179688 C -6.75 -2.683594 -6.273438 -2.324219 -5.644531 -2.105469 C -5.015625 -1.886719 -4.136719 -1.773438 -3.011719 -1.773438 C -1.886719 -1.773438 -1.007812 -1.886719 -0.378906 -2.105469 C 0.25 -2.324219 0.726562 -2.683594 1.078125 -3.179688 Z M 1.554688 -3.179688 "/>
</g>
<g id="glyph-1-17">
<path d="M -6.949219 -2.234375 C -6.949219 -1.945312 -6.8125 -1.726562 -6.542969 -1.566406 C -6.273438 -1.40625 -5.902344 -1.328125 -5.414062 -1.328125 C -4.9375 -1.328125 -4.558594 -1.40625 -4.289062 -1.566406 C -4.019531 -1.734375 -3.878906 -1.953125 -3.878906 -2.234375 C -3.878906 -2.511719 -4.019531 -2.734375 -4.289062 -2.890625 C -4.558594 -3.050781 -4.9375 -3.132812 -5.414062 -3.132812 C -5.894531 -3.132812 -6.273438 -3.050781 -6.542969 -2.890625 C -6.8125 -2.734375 -6.949219 -2.511719 -6.949219 -2.234375 Z M -3.378906 -7.25 C -3.378906 -6.972656 -3.242188 -6.75 -2.972656 -6.582031 C -2.703125 -6.421875 -2.324219 -6.34375 -1.835938 -6.34375 C -1.355469 -6.34375 -0.976562 -6.421875 -0.707031 -6.59375 C -0.4375 -6.75 -0.308594 -6.972656 -0.308594 -7.25 C -0.308594 -7.53125 -0.4375 -7.75 -0.707031 -7.910156 C -0.976562 -8.066406 -1.355469 -8.148438 -1.835938 -8.148438 C -2.3125 -8.148438 -2.691406 -8.066406 -2.960938 -7.898438 C -3.242188 -7.75 -3.378906 -7.53125 -3.378906 -7.25 Z M -3.820312 -7.25 C -3.820312 -7.757812 -3.640625 -8.167969 -3.28125 -8.476562 C -2.921875 -8.777344 -2.441406 -8.925781 -1.835938 -8.925781 C -1.226562 -8.925781 -0.746094 -8.777344 -0.390625 -8.464844 C -0.0390625 -8.167969 0.140625 -7.757812 0.140625 -7.25 C 0.140625 -6.730469 -0.0390625 -6.324219 -0.390625 -6.023438 C -0.746094 -5.714844 -1.226562 -5.566406 -1.835938 -5.566406 C -2.441406 -5.566406 -2.933594 -5.714844 -3.28125 -6.023438 C -3.640625 -6.324219 -3.820312 -6.730469 -3.820312 -7.25 Z M -7.398438 -6.640625 L -7.398438 -7.378906 L 0.140625 -2.832031 L 0.140625 -2.09375 Z M -7.398438 -2.222656 C -7.398438 -2.734375 -7.21875 -3.140625 -6.859375 -3.449219 C -6.511719 -3.757812 -6.035156 -3.910156 -5.425781 -3.910156 C -4.816406 -3.910156 -4.328125 -3.757812 -3.96875 -3.449219 C -3.621094 -3.152344 -3.441406 -2.742188 -3.441406 -2.222656 C -3.441406 -1.714844 -3.621094 -1.304688 -3.96875 -0.996094 C -4.328125 -0.699219 -4.816406 -0.546875 -5.425781 -0.546875 C -6.035156 -0.546875 -6.511719 -0.699219 -6.859375 -1.007812 C -7.21875 -1.304688 -7.398438 -1.714844 -7.398438 -2.222656 Z M -7.398438 -2.222656 "/>
</g>
<g id="glyph-1-18">
<path d="M 1.554688 -0.707031 L 1.078125 -0.707031 C 0.726562 -1.207031 0.25 -1.566406 -0.378906 -1.785156 C -1.007812 -2.003906 -1.886719 -2.113281 -3.011719 -2.113281 C -4.136719 -2.113281 -5.015625 -2.003906 -5.644531 -1.785156 C -6.273438 -1.566406 -6.75 -1.207031 -7.101562 -0.707031 L -7.578125 -0.707031 C -7.230469 -1.496094 -6.660156 -2.09375 -5.894531 -2.492188 C -5.125 -2.902344 -4.167969 -3.101562 -3.011719 -3.101562 C -1.855469 -3.101562 -0.898438 -2.902344 -0.128906 -2.492188 C 0.636719 -2.09375 1.207031 -1.496094 1.554688 -0.707031 Z M 1.554688 -0.707031 "/>
</g>
<g id="glyph-2-0">
<path d="M 5.273438 -1.445312 C 5.117188 -0.933594 4.847656 -0.546875 4.464844 -0.285156 C 4.082031 -0.0234375 3.605469 0.105469 3.027344 0.105469 C 2.671875 0.105469 2.339844 0.0429688 2.035156 -0.0742188 C 1.726562 -0.203125 1.457031 -0.382812 1.226562 -0.613281 C 0.949219 -0.890625 0.746094 -1.195312 0.621094 -1.539062 C 0.484375 -1.890625 0.417969 -2.28125 0.417969 -2.722656 C 0.417969 -3.566406 0.664062 -4.253906 1.152344 -4.773438 C 1.636719 -5.289062 2.289062 -5.550781 3.089844 -5.550781 C 3.386719 -5.550781 3.703125 -5.511719 4.039062 -5.4375 C 4.375 -5.355469 4.734375 -5.234375 5.125 -5.078125 L 5.125 -3.820312 L 4.710938 -3.820312 C 4.621094 -4.277344 4.441406 -4.613281 4.167969 -4.832031 C 3.898438 -5.046875 3.515625 -5.160156 3.027344 -5.160156 C 2.445312 -5.160156 2.003906 -4.953125 1.707031 -4.539062 C 1.40625 -4.128906 1.257812 -3.523438 1.257812 -2.722656 C 1.257812 -1.921875 1.40625 -1.316406 1.707031 -0.90625 C 2.003906 -0.492188 2.445312 -0.285156 3.027344 -0.285156 C 3.433594 -0.285156 3.769531 -0.382812 4.03125 -0.574219 C 4.292969 -0.769531 4.488281 -1.0625 4.601562 -1.445312 Z M 5.273438 -1.445312 "/>
</g>
<g id="glyph-2-1">
<path d="M 0.308594 0 L 0.308594 -0.390625 L 0.914062 -0.390625 L 0.914062 -5.296875 L 0.269531 -5.296875 L 0.269531 -5.683594 L 1.585938 -5.683594 L 1.585938 -3.195312 C 1.710938 -3.457031 1.871094 -3.648438 2.0625 -3.785156 C 2.265625 -3.917969 2.5 -3.988281 2.761719 -3.988281 C 3.1875 -3.988281 3.507812 -3.867188 3.710938 -3.621094 C 3.910156 -3.375 4.007812 -2.992188 4.007812 -2.46875 L 4.007812 -0.390625 L 4.605469 -0.390625 L 4.605469 0 L 2.753906 0 L 2.753906 -0.390625 L 3.335938 -0.390625 L 3.335938 -2.257812 C 3.335938 -2.730469 3.277344 -3.058594 3.15625 -3.230469 C 3.042969 -3.402344 2.835938 -3.492188 2.542969 -3.492188 C 2.230469 -3.492188 1.988281 -3.378906 1.832031 -3.148438 C 1.667969 -2.925781 1.585938 -2.59375 1.585938 -2.160156 L 1.585938 -0.390625 L 2.167969 -0.390625 L 2.167969 0 Z M 0.308594 0 "/>
</g>
<g id="glyph-2-2">
<path d="M 2.976562 -1.21875 L 2.976562 -2.042969 L 2.109375 -2.042969 C 1.773438 -2.042969 1.527344 -1.96875 1.367188 -1.824219 C 1.203125 -1.683594 1.121094 -1.457031 1.121094 -1.167969 C 1.121094 -0.898438 1.203125 -0.679688 1.367188 -0.523438 C 1.535156 -0.367188 1.757812 -0.285156 2.042969 -0.285156 C 2.320312 -0.285156 2.542969 -0.375 2.714844 -0.546875 C 2.886719 -0.71875 2.976562 -0.941406 2.976562 -1.21875 Z M 3.648438 -2.421875 L 3.648438 -0.390625 L 4.25 -0.390625 L 4.25 0 L 2.976562 0 L 2.976562 -0.417969 C 2.828125 -0.238281 2.65625 -0.105469 2.460938 -0.0234375 C 2.265625 0.0585938 2.042969 0.105469 1.78125 0.105469 C 1.347656 0.105469 1.003906 -0.0078125 0.753906 -0.238281 C 0.5 -0.472656 0.375 -0.777344 0.375 -1.167969 C 0.375 -1.5625 0.515625 -1.878906 0.808594 -2.101562 C 1.097656 -2.320312 1.503906 -2.429688 2.035156 -2.429688 L 2.976562 -2.429688 L 2.976562 -2.699219 C 2.976562 -2.992188 2.886719 -3.222656 2.707031 -3.378906 C 2.527344 -3.546875 2.273438 -3.628906 1.953125 -3.628906 C 1.691406 -3.628906 1.472656 -3.566406 1.316406 -3.441406 C 1.160156 -3.320312 1.054688 -3.140625 1.015625 -2.902344 L 0.671875 -2.902344 L 0.671875 -3.6875 C 0.90625 -3.785156 1.136719 -3.859375 1.355469 -3.910156 C 1.570312 -3.964844 1.789062 -3.988281 1.996094 -3.988281 C 2.535156 -3.988281 2.945312 -3.851562 3.222656 -3.582031 C 3.507812 -3.320312 3.648438 -2.933594 3.648438 -2.421875 Z M 3.648438 -2.421875 "/>
</g>
<g id="glyph-2-3">
<path d="M 1.535156 -0.390625 L 2.167969 -0.390625 L 2.167969 0 L 0.21875 0 L 0.21875 -0.390625 L 0.859375 -0.390625 L 0.859375 -5.296875 L 0.21875 -5.296875 L 0.21875 -5.683594 L 1.535156 -5.683594 Z M 1.535156 -0.390625 "/>
</g>
<g id="glyph-2-4">
<path d="M 4.054688 -1.871094 L 1.160156 -1.871094 L 1.160156 -1.839844 C 1.160156 -1.316406 1.257812 -0.921875 1.449219 -0.652344 C 1.652344 -0.390625 1.945312 -0.253906 2.324219 -0.253906 C 2.617188 -0.253906 2.863281 -0.328125 3.050781 -0.484375 C 3.238281 -0.644531 3.375 -0.867188 3.449219 -1.175781 L 3.988281 -1.175781 C 3.882812 -0.746094 3.6875 -0.433594 3.394531 -0.21875 C 3.105469 0 2.730469 0.105469 2.257812 0.105469 C 1.691406 0.105469 1.234375 -0.0820312 0.890625 -0.457031 C 0.546875 -0.832031 0.375 -1.324219 0.375 -1.945312 C 0.375 -2.558594 0.546875 -3.050781 0.882812 -3.425781 C 1.21875 -3.800781 1.667969 -3.988281 2.214844 -3.988281 C 2.804688 -3.988281 3.253906 -3.808594 3.566406 -3.441406 C 3.882812 -3.082031 4.046875 -2.558594 4.054688 -1.871094 Z M 3.261719 -2.257812 C 3.246094 -2.714844 3.148438 -3.050781 2.96875 -3.277344 C 2.796875 -3.507812 2.542969 -3.628906 2.214844 -3.628906 C 1.90625 -3.628906 1.660156 -3.507812 1.480469 -3.277344 C 1.308594 -3.042969 1.195312 -2.707031 1.160156 -2.257812 Z M 3.261719 -2.257812 "/>
</g>
<g id="glyph-2-5">
<path d="M 0.308594 0 L 0.308594 -0.390625 L 0.914062 -0.390625 L 0.914062 -3.492188 L 0.269531 -3.492188 L 0.269531 -3.882812 L 1.585938 -3.882812 L 1.585938 -3.195312 C 1.710938 -3.457031 1.871094 -3.648438 2.0625 -3.785156 C 2.265625 -3.917969 2.5 -3.988281 2.761719 -3.988281 C 3.1875 -3.988281 3.507812 -3.867188 3.710938 -3.621094 C 3.910156 -3.375 4.007812 -2.992188 4.007812 -2.46875 L 4.007812 -0.390625 L 4.605469 -0.390625 L 4.605469 0 L 2.753906 0 L 2.753906 -0.390625 L 3.335938 -0.390625 L 3.335938 -2.257812 C 3.335938 -2.730469 3.277344 -3.058594 3.15625 -3.230469 C 3.042969 -3.410156 2.835938 -3.5 2.542969 -3.5 C 2.230469 -3.5 1.988281 -3.386719 1.832031 -3.15625 C 1.667969 -2.925781 1.585938 -2.59375 1.585938 -2.160156 L 1.585938 -0.390625 L 2.167969 -0.390625 L 2.167969 0 Z M 0.308594 0 "/>
</g>
<g id="glyph-2-6">
<path d="M 3.925781 -3.492188 L 3.925781 -0.0820312 C 3.925781 0.480469 3.769531 0.90625 3.464844 1.203125 C 3.15625 1.511719 2.722656 1.660156 2.152344 1.660156 C 1.898438 1.660156 1.652344 1.636719 1.421875 1.59375 C 1.1875 1.546875 0.964844 1.480469 0.746094 1.382812 L 0.746094 0.570312 L 1.097656 0.570312 C 1.144531 0.824219 1.25 1.007812 1.40625 1.121094 C 1.570312 1.242188 1.800781 1.300781 2.109375 1.300781 C 2.503906 1.300781 2.789062 1.1875 2.976562 0.964844 C 3.164062 0.742188 3.253906 0.390625 3.253906 -0.0820312 L 3.253906 -0.605469 C 3.125 -0.359375 2.953125 -0.179688 2.753906 -0.0664062 C 2.550781 0.0429688 2.296875 0.105469 1.996094 0.105469 C 1.519531 0.105469 1.128906 -0.0820312 0.824219 -0.464844 C 0.523438 -0.84375 0.375 -1.339844 0.375 -1.945312 C 0.375 -2.550781 0.523438 -3.042969 0.824219 -3.425781 C 1.128906 -3.800781 1.519531 -3.988281 1.996094 -3.988281 C 2.296875 -3.988281 2.550781 -3.925781 2.753906 -3.816406 C 2.953125 -3.703125 3.125 -3.523438 3.253906 -3.277344 L 3.253906 -3.882812 L 4.570312 -3.882812 L 4.570312 -3.492188 Z M 3.253906 -2.132812 C 3.253906 -2.59375 3.164062 -2.953125 2.984375 -3.203125 C 2.804688 -3.449219 2.542969 -3.566406 2.207031 -3.566406 C 1.863281 -3.566406 1.601562 -3.433594 1.421875 -3.15625 C 1.25 -2.886719 1.160156 -2.484375 1.160156 -1.945312 C 1.160156 -1.40625 1.25 -1.003906 1.421875 -0.726562 C 1.601562 -0.449219 1.863281 -0.3125 2.207031 -0.3125 C 2.542969 -0.3125 2.804688 -0.433594 2.984375 -0.679688 C 3.164062 -0.925781 3.253906 -1.277344 3.253906 -1.75 Z M 3.253906 -2.132812 "/>
</g>
<g id="glyph-2-7">
</g>
<g id="glyph-2-8">
<path d="M 0.417969 -0.21875 L 0.417969 -1.121094 L 0.808594 -1.121094 C 0.816406 -0.832031 0.90625 -0.613281 1.078125 -0.472656 C 1.25 -0.328125 1.503906 -0.253906 1.839844 -0.253906 C 2.148438 -0.253906 2.371094 -0.3125 2.527344 -0.425781 C 2.683594 -0.539062 2.765625 -0.703125 2.765625 -0.921875 C 2.765625 -1.09375 2.707031 -1.226562 2.59375 -1.332031 C 2.484375 -1.4375 2.238281 -1.546875 1.863281 -1.667969 L 1.375 -1.832031 C 1.039062 -1.945312 0.800781 -2.078125 0.652344 -2.238281 C 0.5 -2.394531 0.425781 -2.601562 0.425781 -2.851562 C 0.425781 -3.203125 0.554688 -3.484375 0.816406 -3.6875 C 1.078125 -3.890625 1.445312 -3.988281 1.898438 -3.988281 C 2.101562 -3.988281 2.320312 -3.957031 2.542969 -3.902344 C 2.773438 -3.851562 3.007812 -3.777344 3.246094 -3.671875 L 3.246094 -2.828125 L 2.855469 -2.828125 C 2.851562 -3.074219 2.761719 -3.277344 2.59375 -3.417969 C 2.429688 -3.558594 2.207031 -3.628906 1.921875 -3.628906 C 1.636719 -3.628906 1.421875 -3.574219 1.277344 -3.476562 C 1.136719 -3.378906 1.0625 -3.230469 1.0625 -3.027344 C 1.0625 -2.863281 1.113281 -2.730469 1.226562 -2.632812 C 1.339844 -2.535156 1.554688 -2.4375 1.886719 -2.332031 L 2.414062 -2.167969 C 2.78125 -2.058594 3.050781 -1.90625 3.207031 -1.734375 C 3.375 -1.5625 3.457031 -1.347656 3.457031 -1.078125 C 3.457031 -0.710938 3.3125 -0.417969 3.027344 -0.210938 C 2.753906 0 2.363281 0.105469 1.871094 0.105469 C 1.625 0.105469 1.375 0.0742188 1.136719 0.0234375 C 0.898438 -0.03125 0.65625 -0.105469 0.417969 -0.21875 Z M 0.417969 -0.21875 "/>
</g>
<g id="glyph-2-9">
<path d="M 2.648438 -3.882812 L 3.902344 -3.882812 L 3.902344 -0.390625 L 4.539062 -0.390625 L 4.539062 0 L 3.230469 0 L 3.230469 -0.6875 C 3.105469 -0.425781 2.945312 -0.230469 2.753906 -0.0976562 C 2.550781 0.0390625 2.324219 0.105469 2.0625 0.105469 C 1.628906 0.105469 1.308594 -0.015625 1.105469 -0.261719 C 0.90625 -0.507812 0.808594 -0.890625 0.808594 -1.414062 L 0.808594 -3.492188 L 0.203125 -3.492188 L 0.203125 -3.882812 L 1.480469 -3.882812 L 1.480469 -1.625 C 1.480469 -1.152344 1.539062 -0.824219 1.652344 -0.652344 C 1.773438 -0.480469 1.980469 -0.390625 2.273438 -0.390625 C 2.589844 -0.390625 2.828125 -0.5 2.984375 -0.734375 C 3.148438 -0.964844 3.230469 -1.292969 3.230469 -1.726562 L 3.230469 -3.492188 L 2.648438 -3.492188 Z M 2.648438 -3.882812 "/>
</g>
<g id="glyph-2-10">
<path d="M 0.726562 -5.085938 C 0.726562 -5.199219 0.761719 -5.296875 0.84375 -5.378906 C 0.925781 -5.460938 1.03125 -5.503906 1.144531 -5.503906 C 1.257812 -5.503906 1.347656 -5.460938 1.429688 -5.378906 C 1.511719 -5.296875 1.554688 -5.199219 1.554688 -5.085938 C 1.554688 -4.972656 1.519531 -4.875 1.4375 -4.792969 C 1.355469 -4.710938 1.257812 -4.675781 1.144531 -4.675781 C 1.03125 -4.675781 0.925781 -4.710938 0.84375 -4.792969 C 0.761719 -4.875 0.726562 -4.972656 0.726562 -5.085938 Z M 1.585938 -0.390625 L 2.222656 -0.390625 L 2.222656 0 L 0.269531 0 L 0.269531 -0.390625 L 0.914062 -0.390625 L 0.914062 -3.492188 L 0.269531 -3.492188 L 0.269531 -3.882812 L 1.585938 -3.882812 Z M 1.585938 -0.390625 "/>
</g>
<g id="glyph-2-11">
<path d="M 0.808594 -3.492188 L 0.21875 -3.492188 L 0.21875 -3.882812 L 0.808594 -3.882812 L 0.808594 -5.085938 L 1.480469 -5.085938 L 1.480469 -3.882812 L 2.746094 -3.882812 L 2.746094 -3.492188 L 1.480469 -3.492188 L 1.480469 -1.023438 C 1.480469 -0.695312 1.511719 -0.484375 1.578125 -0.394531 C 1.644531 -0.300781 1.757812 -0.253906 1.929688 -0.253906 C 2.101562 -0.253906 2.230469 -0.308594 2.3125 -0.410156 C 2.394531 -0.515625 2.429688 -0.679688 2.4375 -0.914062 L 2.945312 -0.914062 C 2.925781 -0.5625 2.828125 -0.300781 2.65625 -0.140625 C 2.484375 0.0234375 2.222656 0.105469 1.871094 0.105469 C 1.480469 0.105469 1.203125 0.0234375 1.046875 -0.148438 C 0.890625 -0.320312 0.808594 -0.613281 0.808594 -1.023438 Z M 0.808594 -3.492188 "/>
</g>
<g id="glyph-2-12">
<path d="M 3.84375 -1.167969 C 3.746094 -0.753906 3.566406 -0.433594 3.296875 -0.21875 C 3.027344 0 2.675781 0.105469 2.25 0.105469 C 1.691406 0.105469 1.234375 -0.0820312 0.890625 -0.457031 C 0.546875 -0.832031 0.375 -1.324219 0.375 -1.945312 C 0.375 -2.566406 0.546875 -3.058594 0.890625 -3.425781 C 1.234375 -3.800781 1.691406 -3.988281 2.25 -3.988281 C 2.5 -3.988281 2.738281 -3.957031 2.984375 -3.898438 C 3.230469 -3.84375 3.46875 -3.753906 3.71875 -3.640625 L 3.71875 -2.648438 L 3.328125 -2.648438 C 3.277344 -2.984375 3.164062 -3.238281 2.992188 -3.394531 C 2.820312 -3.554688 2.582031 -3.628906 2.257812 -3.628906 C 1.890625 -3.628906 1.625 -3.484375 1.4375 -3.203125 C 1.25 -2.925781 1.160156 -2.503906 1.160156 -1.945312 C 1.160156 -1.382812 1.25 -0.957031 1.429688 -0.679688 C 1.617188 -0.394531 1.890625 -0.253906 2.257812 -0.253906 C 2.550781 -0.253906 2.78125 -0.328125 2.953125 -0.480469 C 3.125 -0.636719 3.238281 -0.859375 3.304688 -1.167969 Z M 3.84375 -1.167969 "/>
</g>
<g id="glyph-2-13">
<path d="M 2.25 -0.253906 C 2.609375 -0.253906 2.878906 -0.394531 3.066406 -0.679688 C 3.253906 -0.964844 3.34375 -1.382812 3.34375 -1.945312 C 3.34375 -2.5 3.253906 -2.917969 3.066406 -3.203125 C 2.878906 -3.484375 2.609375 -3.628906 2.25 -3.628906 C 1.890625 -3.628906 1.617188 -3.484375 1.429688 -3.203125 C 1.25 -2.917969 1.160156 -2.5 1.160156 -1.945312 C 1.160156 -1.382812 1.25 -0.964844 1.4375 -0.679688 C 1.625 -0.394531 1.890625 -0.253906 2.25 -0.253906 Z M 2.25 0.105469 C 1.691406 0.105469 1.234375 -0.0820312 0.890625 -0.457031 C 0.546875 -0.832031 0.375 -1.324219 0.375 -1.945312 C 0.375 -2.566406 0.546875 -3.058594 0.882812 -3.425781 C 1.226562 -3.800781 1.683594 -3.988281 2.25 -3.988281 C 2.820312 -3.988281 3.277344 -3.800781 3.613281 -3.425781 C 3.957031 -3.058594 4.128906 -2.566406 4.128906 -1.945312 C 4.128906 -1.324219 3.957031 -0.832031 3.613281 -0.457031 C 3.277344 -0.0820312 2.820312 0.105469 2.25 0.105469 Z M 2.25 0.105469 "/>
</g>
<g id="glyph-2-14">
<path d="M 3.574219 -3.890625 L 3.574219 -2.917969 L 3.1875 -2.917969 C 3.179688 -3.113281 3.125 -3.253906 3.027344 -3.351562 C 2.933594 -3.449219 2.796875 -3.492188 2.609375 -3.492188 C 2.28125 -3.492188 2.027344 -3.378906 1.847656 -3.148438 C 1.675781 -2.917969 1.585938 -2.589844 1.585938 -2.160156 L 1.585938 -0.390625 L 2.363281 -0.390625 L 2.363281 0 L 0.308594 0 L 0.308594 -0.390625 L 0.914062 -0.390625 L 0.914062 -3.5 L 0.269531 -3.5 L 0.269531 -3.882812 L 1.585938 -3.882812 L 1.585938 -3.195312 C 1.710938 -3.464844 1.886719 -3.664062 2.09375 -3.792969 C 2.296875 -3.917969 2.550781 -3.988281 2.851562 -3.988281 C 2.960938 -3.988281 3.074219 -3.980469 3.195312 -3.964844 C 3.3125 -3.941406 3.441406 -3.917969 3.574219 -3.890625 Z M 3.574219 -3.890625 "/>
</g>
<g id="glyph-2-15">
<path d="M 3.925781 -0.390625 L 4.570312 -0.390625 L 4.570312 0 L 3.253906 0 L 3.253906 -0.605469 C 3.125 -0.359375 2.953125 -0.179688 2.753906 -0.0664062 C 2.550781 0.0429688 2.296875 0.105469 1.996094 0.105469 C 1.519531 0.105469 1.128906 -0.0820312 0.824219 -0.464844 C 0.523438 -0.84375 0.375 -1.339844 0.375 -1.945312 C 0.375 -2.550781 0.523438 -3.042969 0.824219 -3.425781 C 1.128906 -3.800781 1.519531 -3.988281 1.996094 -3.988281 C 2.296875 -3.988281 2.550781 -3.925781 2.753906 -3.816406 C 2.953125 -3.703125 3.125 -3.523438 3.253906 -3.277344 L 3.253906 -5.296875 L 2.617188 -5.296875 L 2.617188 -5.683594 L 3.925781 -5.683594 Z M 3.253906 -1.75 L 3.253906 -2.132812 C 3.253906 -2.59375 3.164062 -2.953125 2.984375 -3.203125 C 2.804688 -3.449219 2.542969 -3.566406 2.207031 -3.566406 C 1.863281 -3.566406 1.601562 -3.433594 1.421875 -3.15625 C 1.25 -2.886719 1.160156 -2.484375 1.160156 -1.945312 C 1.160156 -1.40625 1.25 -1.003906 1.421875 -0.726562 C 1.601562 -0.449219 1.863281 -0.3125 2.207031 -0.3125 C 2.542969 -0.3125 2.804688 -0.433594 2.984375 -0.679688 C 3.164062 -0.925781 3.253906 -1.277344 3.253906 -1.75 Z M 3.253906 -1.75 "/>
</g>
<g id="glyph-2-16">
<path d="M 3.589844 -3.882812 L 4.585938 -0.851562 L 5.460938 -3.492188 L 4.898438 -3.492188 L 4.898438 -3.882812 L 6.304688 -3.882812 L 6.304688 -3.492188 L 5.871094 -3.492188 L 4.71875 0 L 4.160156 0 L 3.203125 -2.902344 L 2.242188 0 L 1.707031 0 L 0.554688 -3.492188 L 0.121094 -3.492188 L 0.121094 -3.882812 L 1.878906 -3.882812 L 1.878906 -3.492188 L 1.25 -3.492188 L 2.117188 -0.851562 L 3.117188 -3.882812 Z M 3.589844 -3.882812 "/>
</g>
<g id="glyph-2-17">
<path d="M 0.957031 -4.152344 L 0.546875 -4.152344 L 0.546875 -5.125 C 0.808594 -5.265625 1.070312 -5.371094 1.332031 -5.445312 C 1.59375 -5.511719 1.855469 -5.550781 2.109375 -5.550781 C 2.675781 -5.550781 3.125 -5.414062 3.457031 -5.136719 C 3.785156 -4.863281 3.949219 -4.488281 3.949219 -4.015625 C 3.949219 -3.484375 3.574219 -2.84375 2.828125 -2.101562 C 2.773438 -2.050781 2.730469 -2.003906 2.699219 -1.972656 L 1.324219 -0.597656 L 3.597656 -0.597656 L 3.597656 -1.273438 L 4.023438 -1.273438 L 4.023438 0 L 0.507812 0 L 0.507812 -0.394531 L 2.160156 -2.050781 C 2.527344 -2.414062 2.789062 -2.746094 2.945312 -3.050781 C 3.105469 -3.359375 3.179688 -3.679688 3.179688 -4.015625 C 3.179688 -4.382812 3.082031 -4.675781 2.886719 -4.875 C 2.699219 -5.085938 2.4375 -5.191406 2.101562 -5.191406 C 1.75 -5.191406 1.480469 -5.101562 1.292969 -4.929688 C 1.105469 -4.757812 0.996094 -4.503906 0.957031 -4.152344 Z M 0.957031 -4.152344 "/>
</g>
<g id="glyph-2-18">
<path d="M 2.378906 -0.253906 C 2.753906 -0.253906 3.027344 -0.457031 3.214844 -0.867188 C 3.402344 -1.277344 3.492188 -1.890625 3.492188 -2.722656 C 3.492188 -3.554688 3.402344 -4.167969 3.214844 -4.578125 C 3.027344 -4.988281 2.753906 -5.191406 2.378906 -5.191406 C 2.003906 -5.191406 1.726562 -4.988281 1.539062 -4.578125 C 1.355469 -4.167969 1.265625 -3.554688 1.265625 -2.722656 C 1.265625 -1.890625 1.355469 -1.277344 1.539062 -0.867188 C 1.726562 -0.457031 2.003906 -0.253906 2.378906 -0.253906 Z M 2.378906 0.105469 C 1.789062 0.105469 1.324219 -0.140625 0.988281 -0.636719 C 0.65625 -1.136719 0.492188 -1.832031 0.492188 -2.722656 C 0.492188 -3.613281 0.65625 -4.308594 0.988281 -4.808594 C 1.324219 -5.304688 1.789062 -5.550781 2.378906 -5.550781 C 2.96875 -5.550781 3.433594 -5.304688 3.761719 -4.808594 C 4.097656 -4.308594 4.261719 -3.613281 4.261719 -2.722656 C 4.261719 -1.832031 4.097656 -1.136719 3.761719 -0.636719 C 3.433594 -0.140625 2.96875 0.105469 2.378906 0.105469 Z M 2.378906 0.105469 "/>
</g>
<g id="glyph-2-19">
<path d="M 1.675781 -5.214844 C 1.457031 -5.214844 1.292969 -5.109375 1.175781 -4.90625 C 1.054688 -4.703125 0.996094 -4.429688 0.996094 -4.0625 C 0.996094 -3.703125 1.054688 -3.417969 1.175781 -3.214844 C 1.300781 -3.015625 1.464844 -2.910156 1.675781 -2.910156 C 1.886719 -2.910156 2.050781 -3.015625 2.167969 -3.214844 C 2.289062 -3.417969 2.347656 -3.703125 2.347656 -4.0625 C 2.347656 -4.421875 2.289062 -4.703125 2.167969 -4.90625 C 2.050781 -5.109375 1.886719 -5.214844 1.675781 -5.214844 Z M 5.4375 -2.535156 C 5.226562 -2.535156 5.0625 -2.429688 4.9375 -2.230469 C 4.816406 -2.027344 4.757812 -1.742188 4.757812 -1.375 C 4.757812 -1.015625 4.816406 -0.734375 4.945312 -0.53125 C 5.0625 -0.328125 5.226562 -0.230469 5.4375 -0.230469 C 5.648438 -0.230469 5.8125 -0.328125 5.929688 -0.53125 C 6.050781 -0.734375 6.109375 -1.015625 6.109375 -1.375 C 6.109375 -1.734375 6.050781 -2.019531 5.921875 -2.222656 C 5.8125 -2.429688 5.648438 -2.535156 5.4375 -2.535156 Z M 5.4375 -2.863281 C 5.820312 -2.863281 6.125 -2.730469 6.359375 -2.460938 C 6.582031 -2.191406 6.695312 -1.832031 6.695312 -1.375 C 6.695312 -0.921875 6.582031 -0.5625 6.351562 -0.292969 C 6.125 -0.03125 5.820312 0.105469 5.4375 0.105469 C 5.046875 0.105469 4.742188 -0.03125 4.519531 -0.292969 C 4.285156 -0.5625 4.171875 -0.921875 4.171875 -1.375 C 4.171875 -1.832031 4.285156 -2.199219 4.519531 -2.460938 C 4.742188 -2.730469 5.046875 -2.863281 5.4375 -2.863281 Z M 4.980469 -5.550781 L 5.535156 -5.550781 L 2.125 0.105469 L 1.570312 0.105469 Z M 1.667969 -5.550781 C 2.050781 -5.550781 2.355469 -5.414062 2.589844 -5.144531 C 2.820312 -4.882812 2.933594 -4.523438 2.933594 -4.070312 C 2.933594 -3.613281 2.820312 -3.246094 2.589844 -2.976562 C 2.363281 -2.714844 2.058594 -2.582031 1.667969 -2.582031 C 1.285156 -2.582031 0.980469 -2.714844 0.746094 -2.976562 C 0.523438 -3.246094 0.410156 -3.613281 0.410156 -4.070312 C 0.410156 -4.523438 0.523438 -4.882812 0.753906 -5.144531 C 0.980469 -5.414062 1.285156 -5.550781 1.667969 -5.550781 Z M 1.667969 -5.550781 "/>
</g>
<g id="glyph-2-20">
<path d="M 1.535156 -2.132812 L 1.535156 -1.75 C 1.535156 -1.277344 1.625 -0.925781 1.800781 -0.679688 C 1.980469 -0.433594 2.242188 -0.3125 2.582031 -0.3125 C 2.925781 -0.3125 3.1875 -0.449219 3.359375 -0.726562 C 3.539062 -1.003906 3.628906 -1.40625 3.628906 -1.945312 C 3.628906 -2.484375 3.539062 -2.886719 3.359375 -3.15625 C 3.1875 -3.433594 2.925781 -3.566406 2.582031 -3.566406 C 2.242188 -3.566406 1.980469 -3.449219 1.800781 -3.203125 C 1.625 -2.953125 1.535156 -2.59375 1.535156 -2.132812 Z M 0.859375 -3.492188 L 0.21875 -3.492188 L 0.21875 -3.882812 L 1.535156 -3.882812 L 1.535156 -3.277344 C 1.660156 -3.523438 1.832031 -3.703125 2.035156 -3.816406 C 2.238281 -3.925781 2.492188 -3.988281 2.789062 -3.988281 C 3.269531 -3.988281 3.65625 -3.800781 3.957031 -3.425781 C 4.261719 -3.042969 4.414062 -2.550781 4.414062 -1.945312 C 4.414062 -1.339844 4.261719 -0.84375 3.957031 -0.464844 C 3.65625 -0.0820312 3.269531 0.105469 2.789062 0.105469 C 2.492188 0.105469 2.238281 0.0429688 2.035156 -0.0664062 C 1.832031 -0.179688 1.660156 -0.359375 1.535156 -0.605469 L 1.535156 1.167969 L 2.167969 1.167969 L 2.167969 1.554688 L 0.21875 1.554688 L 0.21875 1.167969 L 0.859375 1.167969 Z M 0.859375 -3.492188 "/>
</g>
<g id="glyph-2-21">
<path d="M 1.847656 -2.773438 L 2.8125 -2.773438 C 3.179688 -2.773438 3.457031 -2.871094 3.640625 -3.066406 C 3.828125 -3.269531 3.925781 -3.554688 3.925781 -3.917969 C 3.925781 -4.292969 3.828125 -4.578125 3.640625 -4.773438 C 3.457031 -4.964844 3.179688 -5.0625 2.8125 -5.0625 L 1.847656 -5.0625 Z M 0.410156 0 L 0.410156 -0.390625 L 1.105469 -0.390625 L 1.105469 -5.0625 L 0.410156 -5.0625 L 0.410156 -5.453125 L 2.992188 -5.453125 C 3.539062 -5.453125 3.964844 -5.308594 4.285156 -5.035156 C 4.605469 -4.757812 4.765625 -4.390625 4.765625 -3.917969 C 4.765625 -3.449219 4.605469 -3.082031 4.285156 -2.804688 C 3.964844 -2.527344 3.539062 -2.386719 2.992188 -2.386719 L 1.847656 -2.386719 L 1.847656 -0.390625 L 2.691406 -0.390625 L 2.691406 0 Z M 0.410156 0 "/>
</g>
<g id="glyph-2-22">
<path d="M 1.847656 -0.390625 L 2.527344 -0.390625 C 3.238281 -0.390625 3.777344 -0.589844 4.160156 -0.996094 C 4.539062 -1.398438 4.726562 -1.972656 4.726562 -2.730469 C 4.726562 -3.484375 4.539062 -4.070312 4.160156 -4.464844 C 3.777344 -4.863281 3.238281 -5.0625 2.527344 -5.0625 L 1.847656 -5.0625 Z M 0.410156 0 L 0.410156 -0.390625 L 1.105469 -0.390625 L 1.105469 -5.0625 L 0.410156 -5.0625 L 0.410156 -5.453125 L 2.582031 -5.453125 C 3.523438 -5.453125 4.253906 -5.214844 4.78125 -4.734375 C 5.304688 -4.253906 5.566406 -3.589844 5.566406 -2.730469 C 5.566406 -1.871094 5.304688 -1.203125 4.78125 -0.726562 C 4.25 -0.238281 3.515625 0 2.582031 0 Z M 0.410156 0 "/>
</g>
<g id="glyph-2-23">
<path d="M 0.410156 0 L 0.410156 -0.390625 L 1.105469 -0.390625 L 1.105469 -5.0625 L 0.410156 -5.0625 L 0.410156 -5.453125 L 4.800781 -5.453125 L 4.800781 -4.242188 L 4.351562 -4.242188 L 4.351562 -5.003906 L 1.847656 -5.003906 L 1.847656 -3.179688 L 3.636719 -3.179688 L 3.636719 -3.859375 L 4.082031 -3.859375 L 4.082031 -2.050781 L 3.636719 -2.050781 L 3.636719 -2.730469 L 1.847656 -2.730469 L 1.847656 -0.449219 L 4.414062 -0.449219 L 4.414062 -1.210938 L 4.863281 -1.210938 L 4.863281 0 Z M 0.410156 0 "/>
</g>
<g id="glyph-2-24">
<path d="M 0.859375 -0.390625 L 0.859375 -5.296875 L 0.21875 -5.296875 L 0.21875 -5.683594 L 1.535156 -5.683594 L 1.535156 -3.277344 C 1.660156 -3.523438 1.832031 -3.703125 2.035156 -3.816406 C 2.238281 -3.925781 2.492188 -3.988281 2.789062 -3.988281 C 3.269531 -3.988281 3.65625 -3.800781 3.957031 -3.425781 C 4.261719 -3.042969 4.414062 -2.550781 4.414062 -1.945312 C 4.414062 -1.339844 4.261719 -0.84375 3.957031 -0.464844 C 3.65625 -0.0820312 3.269531 0.105469 2.789062 0.105469 C 2.492188 0.105469 2.238281 0.0429688 2.035156 -0.0664062 C 1.832031 -0.179688 1.660156 -0.359375 1.535156 -0.605469 L 1.535156 0 L 0.21875 0 L 0.21875 -0.390625 Z M 1.535156 -1.75 C 1.535156 -1.277344 1.625 -0.925781 1.800781 -0.679688 C 1.980469 -0.433594 2.242188 -0.3125 2.582031 -0.3125 C 2.925781 -0.3125 3.1875 -0.449219 3.359375 -0.726562 C 3.539062 -1.003906 3.628906 -1.40625 3.628906 -1.945312 C 3.628906 -2.484375 3.539062 -2.886719 3.359375 -3.15625 C 3.1875 -3.433594 2.925781 -3.566406 2.582031 -3.566406 C 2.242188 -3.566406 1.980469 -3.449219 1.800781 -3.203125 C 1.625 -2.953125 1.535156 -2.59375 1.535156 -2.132812 Z M 1.535156 -1.75 "/>
</g>
<g id="glyph-2-25">
<path d="M 2.140625 0 L 0.253906 0 L 0.253906 -0.390625 L 0.859375 -0.390625 L 0.859375 -5.296875 L 0.21875 -5.296875 L 0.21875 -5.683594 L 1.535156 -5.683594 L 1.535156 -1.980469 L 3.171875 -3.492188 L 2.609375 -3.492188 L 2.609375 -3.882812 L 4.367188 -3.882812 L 4.367188 -3.492188 L 3.703125 -3.492188 L 2.550781 -2.421875 L 4.023438 -0.390625 L 4.585938 -0.390625 L 4.585938 0 L 2.671875 0 L 2.671875 -0.390625 L 3.222656 -0.390625 L 2.0625 -1.980469 L 1.535156 -1.488281 L 1.535156 -0.390625 L 2.140625 -0.390625 Z M 2.140625 0 "/>
</g>
<g id="glyph-2-26">
<path d="M 0.703125 -0.382812 C 0.703125 -0.515625 0.746094 -0.628906 0.84375 -0.726562 C 0.933594 -0.824219 1.046875 -0.867188 1.1875 -0.867188 C 1.324219 -0.867188 1.4375 -0.824219 1.535156 -0.726562 C 1.628906 -0.628906 1.675781 -0.515625 1.675781 -0.382812 C 1.675781 -0.246094 1.628906 -0.132812 1.535156 -0.0390625 C 1.4375 0.0585938 1.324219 0.105469 1.1875 0.105469 C 1.046875 0.105469 0.933594 0.0585938 0.84375 -0.03125 C 0.746094 -0.128906 0.703125 -0.238281 0.703125 -0.382812 Z M 0.703125 -0.382812 "/>
</g>
</g>
<clipPath id="clip-0">
<path clip-rule="nonzero" d="M 0.46875 0 L 473.8125 0 L 473.8125 305.324219 L 0.46875 305.324219 Z M 0.46875 0 "/>
</clipPath>
<clipPath id="clip-1">
<path clip-rule="nonzero" d="M 0.46875 0 L 473.8125 0 L 473.8125 297 L 0.46875 297 Z M 0.46875 0 "/>
</clipPath>
<clipPath id="clip-2">
<path clip-rule="nonzero" d="M 62 91 L 127 91 L 127 248.476562 L 62 248.476562 Z M 62 91 "/>
</clipPath>
<clipPath id="clip-3">
<path clip-rule="nonzero" d="M 142 91 L 207 91 L 207 248.476562 L 142 248.476562 Z M 142 91 "/>
</clipPath>
<clipPath id="clip-4">
<path clip-rule="nonzero" d="M 222 91 L 287 91 L 287 248.476562 L 222 248.476562 Z M 222 91 "/>
</clipPath>
<clipPath id="clip-5">
<path clip-rule="nonzero" d="M 302 91 L 367 91 L 367 248.476562 L 302 248.476562 Z M 302 91 "/>
</clipPath>
<clipPath id="clip-6">
<path clip-rule="nonzero" d="M 301 91 L 367 91 L 367 248.476562 L 301 248.476562 Z M 301 91 "/>
</clipPath>
<clipPath id="clip-7">
<path clip-rule="nonzero" d="M 382 91 L 447 91 L 447 248.476562 L 382 248.476562 Z M 382 91 "/>
</clipPath>
<clipPath id="clip-8">
<path clip-rule="nonzero" d="M 381 91 L 447 91 L 447 248.476562 L 381 248.476562 Z M 381 91 "/>
</clipPath>
<clipPath id="clip-9">
<path clip-rule="nonzero" d="M 93 12.605469 L 95 12.605469 L 95 248.476562 L 93 248.476562 Z M 93 12.605469 "/>
</clipPath>
<clipPath id="clip-10">
<path clip-rule="nonzero" d="M 173 12.605469 L 175 12.605469 L 175 248.476562 L 173 248.476562 Z M 173 12.605469 "/>
</clipPath>
<clipPath id="clip-11">
<path clip-rule="nonzero" d="M 253 12.605469 L 255 12.605469 L 255 248.476562 L 253 248.476562 Z M 253 12.605469 "/>
</clipPath>
<clipPath id="clip-12">
<path clip-rule="nonzero" d="M 333 12.605469 L 335 12.605469 L 335 248.476562 L 333 248.476562 Z M 333 12.605469 "/>
</clipPath>
<clipPath id="clip-13">
<path clip-rule="nonzero" d="M 413 12.605469 L 415 12.605469 L 415 248.476562 L 413 248.476562 Z M 413 12.605469 "/>
</clipPath>
<clipPath id="clip-14">
<path clip-rule="nonzero" d="M 43.074219 248 L 465.273438 248 L 465.273438 248.476562 L 43.074219 248.476562 Z M 43.074219 248 "/>
</clipPath>
<clipPath id="clip-15">
<path clip-rule="nonzero" d="M 43.074219 208 L 465.273438 208 L 465.273438 210 L 43.074219 210 Z M 43.074219 208 "/>
</clipPath>
<clipPath id="clip-16">
<path clip-rule="nonzero" d="M 43.074219 169 L 465.273438 169 L 465.273438 171 L 43.074219 171 Z M 43.074219 169 "/>
</clipPath>
<clipPath id="clip-17">
<path clip-rule="nonzero" d="M 43.074219 130 L 465.273438 130 L 465.273438 131 L 43.074219 131 Z M 43.074219 130 "/>
</clipPath>
<clipPath id="clip-18">
<path clip-rule="nonzero" d="M 43.074219 90 L 465.273438 90 L 465.273438 92 L 43.074219 92 Z M 43.074219 90 "/>
</clipPath>
<clipPath id="clip-19">
<path clip-rule="nonzero" d="M 43.074219 51 L 465.273438 51 L 465.273438 53 L 43.074219 53 Z M 43.074219 51 "/>
</clipPath>
<clipPath id="clip-20">
<path clip-rule="nonzero" d="M 43.074219 12.605469 L 465.273438 12.605469 L 465.273438 13 L 43.074219 13 Z M 43.074219 12.605469 "/>
</clipPath>
</defs>
<g clip-path="url(#clip-0)">
<rect x="-47.464" y="-30.616" width="569.568" height="367.392" fill="rgb(100%, 100%, 100%)" fill-opacity="1"/>
</g>
<g clip-path="url(#clip-1)">
<path fill-rule="nonzero" fill="rgb(100%, 100%, 100%)" fill-opacity="1" d="M -17.242188 296.945312 L 485.378906 296.945312 L 485.378906 -26.167969 L -17.242188 -26.167969 Z M -17.242188 296.945312 "/>
</g>
<path fill-rule="nonzero" fill="rgb(100%, 100%, 100%)" fill-opacity="1" d="M 43.074219 248.476562 L 465.273438 248.476562 L 465.273438 12.605469 L 43.074219 12.605469 Z M 43.074219 248.476562 "/>
<g clip-path="url(#clip-2)">
<path fill-rule="nonzero" fill="rgb(5.097961%, 16.862488%, 29.019165%)" fill-opacity="1" stroke-width="0.35" stroke-linecap="butt" stroke-linejoin="miter" stroke="rgb(12.156677%, 30.587769%, 47.450256%)" stroke-opacity="1" stroke-miterlimit="10" d="M 79.725335 48.601701 L 143.869593 48.601701 L 143.869593 206.279226 L 79.725335 206.279226 Z M 79.725335 48.601701 " transform="matrix(0.997264, 0, 0, -0.997264, -17.241569, 296.945282)"/>
</g>
<g clip-path="url(#clip-3)">
<path fill-rule="nonzero" fill="rgb(12.156677%, 30.587769%, 47.450256%)" fill-opacity="1" stroke-width="0.35" stroke-linecap="butt" stroke-linejoin="miter" stroke="rgb(12.156677%, 30.587769%, 47.450256%)" stroke-opacity="1" stroke-miterlimit="10" d="M 159.905658 48.601701 L 224.049917 48.601701 L 224.049917 206.279226 L 159.905658 206.279226 Z M 159.905658 48.601701 " transform="matrix(0.997264, 0, 0, -0.997264, -17.241569, 296.945282)"/>
</g>
<g clip-path="url(#clip-4)">
<path fill-rule="nonzero" fill="rgb(16.078186%, 50.195312%, 72.547913%)" fill-opacity="1" stroke-width="0.35" stroke-linecap="butt" stroke-linejoin="miter" stroke="rgb(12.156677%, 30.587769%, 47.450256%)" stroke-opacity="1" stroke-miterlimit="10" d="M 240.085982 48.601701 L 304.234157 48.601701 L 304.234157 206.279226 L 240.085982 206.279226 Z M 240.085982 48.601701 " transform="matrix(0.997264, 0, 0, -0.997264, -17.241569, 296.945282)"/>
</g>
<g clip-path="url(#clip-5)">
<path fill-rule="nonzero" fill="rgb(48.234558%, 73.332214%, 90.194702%)" fill-opacity="1" d="M 302.152344 248.476562 L 366.121094 248.476562 L 366.121094 91.230469 L 302.152344 91.230469 Z M 302.152344 248.476562 "/>
</g>
<g clip-path="url(#clip-6)">
<path fill="none" stroke-width="0.35" stroke-linecap="butt" stroke-linejoin="miter" stroke="rgb(12.156677%, 30.587769%, 47.450256%)" stroke-opacity="1" stroke-miterlimit="10" d="M 320.270222 48.601701 L 384.414481 48.601701 L 384.414481 206.279226 L 320.270222 206.279226 Z M 320.270222 48.601701 " transform="matrix(0.997264, 0, 0, -0.997264, -17.241569, 296.945282)"/>
</g>
<g clip-path="url(#clip-7)">
<path fill-rule="nonzero" fill="rgb(66.273499%, 82.743835%, 94.116211%)" fill-opacity="1" d="M 382.113281 248.476562 L 446.082031 248.476562 L 446.082031 91.230469 L 382.113281 91.230469 Z M 382.113281 248.476562 "/>
</g>
<g clip-path="url(#clip-8)">
<path fill="none" stroke-width="0.35" stroke-linecap="butt" stroke-linejoin="miter" stroke="rgb(12.156677%, 30.587769%, 47.450256%)" stroke-opacity="1" stroke-miterlimit="10" d="M 400.450545 48.601701 L 464.594804 48.601701 L 464.594804 206.279226 L 400.450545 206.279226 Z M 400.450545 48.601701 " transform="matrix(0.997264, 0, 0, -0.997264, -17.241569, 296.945282)"/>
</g>
<g clip-path="url(#clip-9)">
<path fill="none" stroke-width="0.5" stroke-linecap="square" stroke-linejoin="round" stroke="rgb(69.018555%, 69.018555%, 69.018555%)" stroke-opacity="0.28" stroke-miterlimit="10" d="M 111.797464 48.601701 L 111.797464 285.119946 " transform="matrix(0.997264, 0, 0, -0.997264, -17.241569, 296.945282)"/>
</g>
<path fill="none" stroke-width="0.8" stroke-linecap="butt" stroke-linejoin="round" stroke="rgb(0%, 0%, 0%)" stroke-opacity="1" stroke-miterlimit="10" d="M 111.797464 48.601701 L 111.797464 45.099933 " transform="matrix(0.997264, 0, 0, -0.997264, -17.241569, 296.945282)"/>
<g fill="rgb(0%, 0%, 0%)" fill-opacity="1">
<use xlink:href="#glyph-0-0" x="79.017256" y="263.035974"/>
</g>
<g fill="rgb(0%, 0%, 0%)" fill-opacity="1">
<use xlink:href="#glyph-0-1" x="87.013364" y="263.035974"/>
</g>
<g fill="rgb(0%, 0%, 0%)" fill-opacity="1">
<use xlink:href="#glyph-0-2" x="94.290468" y="263.035974"/>
</g>
<g fill="rgb(0%, 0%, 0%)" fill-opacity="1">
<use xlink:href="#glyph-0-0" x="101.487792" y="263.035974"/>
</g>
<g clip-path="url(#clip-10)">
<path fill="none" stroke-width="0.5" stroke-linecap="square" stroke-linejoin="round" stroke="rgb(69.018555%, 69.018555%, 69.018555%)" stroke-opacity="0.28" stroke-miterlimit="10" d="M 191.977787 48.601701 L 191.977787 285.119946 " transform="matrix(0.997264, 0, 0, -0.997264, -17.241569, 296.945282)"/>
</g>
<path fill="none" stroke-width="0.8" stroke-linecap="butt" stroke-linejoin="round" stroke="rgb(0%, 0%, 0%)" stroke-opacity="1" stroke-miterlimit="10" d="M 191.977787 48.601701 L 191.977787 45.099933 " transform="matrix(0.997264, 0, 0, -0.997264, -17.241569, 296.945282)"/>
<g fill="rgb(0%, 0%, 0%)" fill-opacity="1">
<use xlink:href="#glyph-0-3" x="151.991046" y="264.034212"/>
</g>
<g fill="rgb(0%, 0%, 0%)" fill-opacity="1">
<use xlink:href="#glyph-0-4" x="162.198158" y="264.034212"/>
</g>
<g fill="rgb(0%, 0%, 0%)" fill-opacity="1">
<use xlink:href="#glyph-0-5" x="170.380591" y="264.034212"/>
</g>
<g fill="rgb(0%, 0%, 0%)" fill-opacity="1">
<use xlink:href="#glyph-0-6" x="177.205031" y="264.034212"/>
</g>
<g fill="rgb(0%, 0%, 0%)" fill-opacity="1">
<use xlink:href="#glyph-0-7" x="183.858729" y="264.034212"/>
</g>
<g fill="rgb(0%, 0%, 0%)" fill-opacity="1">
<use xlink:href="#glyph-0-8" x="189.841689" y="264.034212"/>
</g>
<g fill="rgb(0%, 0%, 0%)" fill-opacity="1">
<use xlink:href="#glyph-0-0" x="158.979684" y="276.003326"/>
</g>
<g fill="rgb(0%, 0%, 0%)" fill-opacity="1">
<use xlink:href="#glyph-0-1" x="166.975792" y="276.003326"/>
</g>
<g fill="rgb(0%, 0%, 0%)" fill-opacity="1">
<use xlink:href="#glyph-0-2" x="174.252896" y="276.003326"/>
</g>
<g fill="rgb(0%, 0%, 0%)" fill-opacity="1">
<use xlink:href="#glyph-0-0" x="181.45022" y="276.003326"/>
</g>
<g clip-path="url(#clip-11)">
<path fill="none" stroke-width="0.5" stroke-linecap="square" stroke-linejoin="round" stroke="rgb(69.018555%, 69.018555%, 69.018555%)" stroke-opacity="0.28" stroke-miterlimit="10" d="M 272.158111 48.601701 L 272.158111 285.119946 " transform="matrix(0.997264, 0, 0, -0.997264, -17.241569, 296.945282)"/>
</g>
<path fill="none" stroke-width="0.8" stroke-linecap="butt" stroke-linejoin="round" stroke="rgb(0%, 0%, 0%)" stroke-opacity="1" stroke-miterlimit="10" d="M 272.158111 48.601701 L 272.158111 45.099933 " transform="matrix(0.997264, 0, 0, -0.997264, -17.241569, 296.945282)"/>
<g fill="rgb(0%, 0%, 0%)" fill-opacity="1">
<use xlink:href="#glyph-0-9" x="225.510215" y="264.034212"/>
</g>
<g fill="rgb(0%, 0%, 0%)" fill-opacity="1">
<use xlink:href="#glyph-0-2" x="231.308291" y="264.034212"/>
</g>
<g fill="rgb(0%, 0%, 0%)" fill-opacity="1">
<use xlink:href="#glyph-0-10" x="238.505614" y="264.034212"/>
</g>
<g fill="rgb(0%, 0%, 0%)" fill-opacity="1">
<use xlink:href="#glyph-0-6" x="245.845554" y="264.034212"/>
</g>
<g fill="rgb(0%, 0%, 0%)" fill-opacity="1">
<use xlink:href="#glyph-0-11" x="252.499252" y="264.034212"/>
</g>
<g fill="rgb(0%, 0%, 0%)" fill-opacity="1">
<use xlink:href="#glyph-0-2" x="256.441366" y="264.034212"/>
</g>
<g fill="rgb(0%, 0%, 0%)" fill-opacity="1">
<use xlink:href="#glyph-0-7" x="263.638689" y="264.034212"/>
<use xlink:href="#glyph-0-7" x="270.260521" y="264.034212"/>
</g>
<g fill="rgb(0%, 0%, 0%)" fill-opacity="1">
<use xlink:href="#glyph-0-8" x="276.243481" y="264.034212"/>
</g>
<g fill="rgb(0%, 0%, 0%)" fill-opacity="1">
<use xlink:href="#glyph-0-0" x="238.942112" y="276.003326"/>
</g>
<g fill="rgb(0%, 0%, 0%)" fill-opacity="1">
<use xlink:href="#glyph-0-1" x="246.93822" y="276.003326"/>
</g>
<g fill="rgb(0%, 0%, 0%)" fill-opacity="1">
<use xlink:href="#glyph-0-2" x="254.215325" y="276.003326"/>
</g>
<g fill="rgb(0%, 0%, 0%)" fill-opacity="1">
<use xlink:href="#glyph-0-0" x="261.412648" y="276.003326"/>
</g>
<g clip-path="url(#clip-12)">
<path fill="none" stroke-width="0.5" stroke-linecap="square" stroke-linejoin="round" stroke="rgb(69.018555%, 69.018555%, 69.018555%)" stroke-opacity="0.28" stroke-miterlimit="10" d="M 352.342351 48.601701 L 352.342351 285.119946 " transform="matrix(0.997264, 0, 0, -0.997264, -17.241569, 296.945282)"/>
</g>
<path fill="none" stroke-width="0.8" stroke-linecap="butt" stroke-linejoin="round" stroke="rgb(0%, 0%, 0%)" stroke-opacity="1" stroke-miterlimit="10" d="M 352.342351 48.601701 L 352.342351 45.099933 " transform="matrix(0.997264, 0, 0, -0.997264, -17.241569, 296.945282)"/>
<g fill="rgb(0%, 0%, 0%)" fill-opacity="1">
<use xlink:href="#glyph-0-3" x="311.915902" y="264.034212"/>
</g>
<g fill="rgb(0%, 0%, 0%)" fill-opacity="1">
<use xlink:href="#glyph-0-4" x="322.123014" y="264.034212"/>
</g>
<g fill="rgb(0%, 0%, 0%)" fill-opacity="1">
<use xlink:href="#glyph-0-5" x="330.305447" y="264.034212"/>
</g>
<g fill="rgb(0%, 0%, 0%)" fill-opacity="1">
<use xlink:href="#glyph-0-6" x="337.129888" y="264.034212"/>
</g>
<g fill="rgb(0%, 0%, 0%)" fill-opacity="1">
<use xlink:href="#glyph-0-7" x="343.783585" y="264.034212"/>
</g>
<g fill="rgb(0%, 0%, 0%)" fill-opacity="1">
<use xlink:href="#glyph-0-8" x="349.766545" y="264.034212"/>
</g>
<g fill="rgb(0%, 0%, 0%)" fill-opacity="1">
<use xlink:href="#glyph-0-7" x="321.615851" y="276.003326"/>
<use xlink:href="#glyph-0-11" x="328.237683" y="276.003326"/>
</g>
<g fill="rgb(0%, 0%, 0%)" fill-opacity="1">
<use xlink:href="#glyph-0-12" x="332.179797" y="276.003326"/>
</g>
<g fill="rgb(0%, 0%, 0%)" fill-opacity="1">
<use xlink:href="#glyph-0-1" x="339.37712" y="276.003326"/>
</g>
<g clip-path="url(#clip-13)">
<path fill="none" stroke-width="0.5" stroke-linecap="square" stroke-linejoin="round" stroke="rgb(69.018555%, 69.018555%, 69.018555%)" stroke-opacity="0.28" stroke-miterlimit="10" d="M 432.522675 48.601701 L 432.522675 285.119946 " transform="matrix(0.997264, 0, 0, -0.997264, -17.241569, 296.945282)"/>
</g>
<path fill="none" stroke-width="0.8" stroke-linecap="butt" stroke-linejoin="round" stroke="rgb(0%, 0%, 0%)" stroke-opacity="1" stroke-miterlimit="10" d="M 432.522675 48.601701 L 432.522675 45.099933 " transform="matrix(0.997264, 0, 0, -0.997264, -17.241569, 296.945282)"/>
<g fill="rgb(0%, 0%, 0%)" fill-opacity="1">
<use xlink:href="#glyph-0-7" x="401.578279" y="263.035974"/>
<use xlink:href="#glyph-0-11" x="408.200111" y="263.035974"/>
</g>
<g fill="rgb(0%, 0%, 0%)" fill-opacity="1">
<use xlink:href="#glyph-0-12" x="412.142225" y="263.035974"/>
</g>
<g fill="rgb(0%, 0%, 0%)" fill-opacity="1">
<use xlink:href="#glyph-0-1" x="419.339548" y="263.035974"/>
</g>
<g clip-path="url(#clip-14)">
<path fill="none" stroke-width="0.5" stroke-linecap="square" stroke-linejoin="round" stroke="rgb(69.018555%, 69.018555%, 69.018555%)" stroke-opacity="0.28" stroke-miterlimit="10" d="M 60.481274 48.601701 L 483.838865 48.601701 " transform="matrix(0.997264, 0, 0, -0.997264, -17.241569, 296.945282)"/>
</g>
<path fill="none" stroke-width="0.8" stroke-linecap="butt" stroke-linejoin="round" stroke="rgb(0%, 0%, 0%)" stroke-opacity="1" stroke-miterlimit="10" d="M 60.481274 48.601701 L 56.979505 48.601701 " transform="matrix(0.997264, 0, 0, -0.997264, -17.241569, 296.945282)"/>
<g fill="rgb(0%, 0%, 0%)" fill-opacity="1">
<use xlink:href="#glyph-0-13" x="29.750127" y="252.266693"/>
</g>
<g clip-path="url(#clip-15)">
<path fill="none" stroke-width="0.5" stroke-linecap="square" stroke-linejoin="round" stroke="rgb(69.018555%, 69.018555%, 69.018555%)" stroke-opacity="0.28" stroke-miterlimit="10" d="M 60.481274 88.018145 L 483.838865 88.018145 " transform="matrix(0.997264, 0, 0, -0.997264, -17.241569, 296.945282)"/>
</g>
<path fill="none" stroke-width="0.8" stroke-linecap="butt" stroke-linejoin="round" stroke="rgb(0%, 0%, 0%)" stroke-opacity="1" stroke-miterlimit="10" d="M 60.481274 88.018145 L 56.979505 88.018145 " transform="matrix(0.997264, 0, 0, -0.997264, -17.241569, 296.945282)"/>
<g fill="rgb(0%, 0%, 0%)" fill-opacity="1">
<use xlink:href="#glyph-0-14" x="29.750127" y="212.954553"/>
</g>
<g clip-path="url(#clip-16)">
<path fill="none" stroke-width="0.5" stroke-linecap="square" stroke-linejoin="round" stroke="rgb(69.018555%, 69.018555%, 69.018555%)" stroke-opacity="0.28" stroke-miterlimit="10" d="M 60.481274 127.438505 L 483.838865 127.438505 " transform="matrix(0.997264, 0, 0, -0.997264, -17.241569, 296.945282)"/>
</g>
<path fill="none" stroke-width="0.8" stroke-linecap="butt" stroke-linejoin="round" stroke="rgb(0%, 0%, 0%)" stroke-opacity="1" stroke-miterlimit="10" d="M 60.481274 127.438505 L 56.979505 127.438505 " transform="matrix(0.997264, 0, 0, -0.997264, -17.241569, 296.945282)"/>
<g fill="rgb(0%, 0%, 0%)" fill-opacity="1">
<use xlink:href="#glyph-0-15" x="23.408152" y="173.642412"/>
</g>
<g fill="rgb(0%, 0%, 0%)" fill-opacity="1">
<use xlink:href="#glyph-0-13" x="29.747828" y="173.642412"/>
</g>
<g clip-path="url(#clip-17)">
<path fill="none" stroke-width="0.5" stroke-linecap="square" stroke-linejoin="round" stroke="rgb(69.018555%, 69.018555%, 69.018555%)" stroke-opacity="0.28" stroke-miterlimit="10" d="M 60.481274 166.858865 L 483.838865 166.858865 " transform="matrix(0.997264, 0, 0, -0.997264, -17.241569, 296.945282)"/>
</g>
<path fill="none" stroke-width="0.8" stroke-linecap="butt" stroke-linejoin="round" stroke="rgb(0%, 0%, 0%)" stroke-opacity="1" stroke-miterlimit="10" d="M 60.481274 166.858865 L 56.979505 166.858865 " transform="matrix(0.997264, 0, 0, -0.997264, -17.241569, 296.945282)"/>
<g fill="rgb(0%, 0%, 0%)" fill-opacity="1">
<use xlink:href="#glyph-0-15" x="23.408152" y="134.330271"/>
</g>
<g fill="rgb(0%, 0%, 0%)" fill-opacity="1">
<use xlink:href="#glyph-0-14" x="29.747828" y="134.330271"/>
</g>
<g clip-path="url(#clip-18)">
<path fill="none" stroke-width="0.5" stroke-linecap="square" stroke-linejoin="round" stroke="rgb(69.018555%, 69.018555%, 69.018555%)" stroke-opacity="0.28" stroke-miterlimit="10" d="M 60.481274 206.279226 L 483.838865 206.279226 " transform="matrix(0.997264, 0, 0, -0.997264, -17.241569, 296.945282)"/>
</g>
<path fill="none" stroke-width="0.8" stroke-linecap="butt" stroke-linejoin="round" stroke="rgb(0%, 0%, 0%)" stroke-opacity="1" stroke-miterlimit="10" d="M 60.481274 206.279226 L 56.979505 206.279226 " transform="matrix(0.997264, 0, 0, -0.997264, -17.241569, 296.945282)"/>
<g fill="rgb(0%, 0%, 0%)" fill-opacity="1">
<use xlink:href="#glyph-0-16" x="23.408152" y="95.01813"/>
</g>
<g fill="rgb(0%, 0%, 0%)" fill-opacity="1">
<use xlink:href="#glyph-0-13" x="29.747828" y="95.01813"/>
</g>
<g clip-path="url(#clip-19)">
<path fill="none" stroke-width="0.5" stroke-linecap="square" stroke-linejoin="round" stroke="rgb(69.018555%, 69.018555%, 69.018555%)" stroke-opacity="0.28" stroke-miterlimit="10" d="M 60.481274 245.699586 L 483.838865 245.699586 " transform="matrix(0.997264, 0, 0, -0.997264, -17.241569, 296.945282)"/>
</g>
<path fill="none" stroke-width="0.8" stroke-linecap="butt" stroke-linejoin="round" stroke="rgb(0%, 0%, 0%)" stroke-opacity="1" stroke-miterlimit="10" d="M 60.481274 245.699586 L 56.979505 245.699586 " transform="matrix(0.997264, 0, 0, -0.997264, -17.241569, 296.945282)"/>
<g fill="rgb(0%, 0%, 0%)" fill-opacity="1">
<use xlink:href="#glyph-0-16" x="23.408152" y="55.70599"/>
</g>
<g fill="rgb(0%, 0%, 0%)" fill-opacity="1">
<use xlink:href="#glyph-0-14" x="29.747828" y="55.70599"/>
</g>
<g clip-path="url(#clip-20)">
<path fill="none" stroke-width="0.5" stroke-linecap="square" stroke-linejoin="round" stroke="rgb(69.018555%, 69.018555%, 69.018555%)" stroke-opacity="0.28" stroke-miterlimit="10" d="M 60.481274 285.119946 L 483.838865 285.119946 " transform="matrix(0.997264, 0, 0, -0.997264, -17.241569, 296.945282)"/>
</g>
<path fill="none" stroke-width="0.8" stroke-linecap="butt" stroke-linejoin="round" stroke="rgb(0%, 0%, 0%)" stroke-opacity="1" stroke-miterlimit="10" d="M 60.481274 285.119946 L 56.979505 285.119946 " transform="matrix(0.997264, 0, 0, -0.997264, -17.241569, 296.945282)"/>
<g fill="rgb(0%, 0%, 0%)" fill-opacity="1">
<use xlink:href="#glyph-0-17" x="23.408152" y="16.393849"/>
</g>
<g fill="rgb(0%, 0%, 0%)" fill-opacity="1">
<use xlink:href="#glyph-0-13" x="29.747828" y="16.393849"/>
</g>
<g fill="rgb(0%, 0%, 0%)" fill-opacity="1">
<use xlink:href="#glyph-1-0" x="17.023326" y="212.816104"/>
</g>
<g fill="rgb(0%, 0%, 0%)" fill-opacity="1">
<use xlink:href="#glyph-1-1" x="17.023326" y="205.991664"/>
</g>
<g fill="rgb(0%, 0%, 0%)" fill-opacity="1">
<use xlink:href="#glyph-1-2" x="17.023326" y="199.572207"/>
</g>
<g fill="rgb(0%, 0%, 0%)" fill-opacity="1">
<use xlink:href="#glyph-1-3" x="17.023326" y="193.621697"/>
</g>
<g fill="rgb(0%, 0%, 0%)" fill-opacity="1">
<use xlink:href="#glyph-1-4" x="17.023326" y="188.853802"/>
</g>
<g fill="rgb(0%, 0%, 0%)" fill-opacity="1">
<use xlink:href="#glyph-1-5" x="17.023326" y="182.946104"/>
</g>
<g fill="rgb(0%, 0%, 0%)" fill-opacity="1">
<use xlink:href="#glyph-1-6" x="17.023326" y="179.781623"/>
</g>
<g fill="rgb(0%, 0%, 0%)" fill-opacity="1">
<use xlink:href="#glyph-1-7" x="17.023326" y="173.782964"/>
</g>
<g fill="rgb(0%, 0%, 0%)" fill-opacity="1">
<use xlink:href="#glyph-1-5" x="17.023326" y="170.09114"/>
</g>
<g fill="rgb(0%, 0%, 0%)" fill-opacity="1">
<use xlink:href="#glyph-1-8" x="17.023326" y="166.926658"/>
</g>
<g fill="rgb(0%, 0%, 0%)" fill-opacity="1">
<use xlink:href="#glyph-1-1" x="17.023326" y="161.348798"/>
</g>
<g fill="rgb(0%, 0%, 0%)" fill-opacity="1">
<use xlink:href="#glyph-1-2" x="17.023326" y="154.92934"/>
</g>
<g fill="rgb(0%, 0%, 0%)" fill-opacity="1">
<use xlink:href="#glyph-1-9" x="17.023326" y="148.97883"/>
</g>
<g fill="rgb(0%, 0%, 0%)" fill-opacity="1">
<use xlink:href="#glyph-1-9" x="17.023326" y="145.782717"/>
</g>
<g fill="rgb(0%, 0%, 0%)" fill-opacity="1">
<use xlink:href="#glyph-1-4" x="17.023326" y="142.586603"/>
</g>
<g fill="rgb(0%, 0%, 0%)" fill-opacity="1">
<use xlink:href="#glyph-1-10" x="17.023326" y="136.678905"/>
</g>
<g fill="rgb(0%, 0%, 0%)" fill-opacity="1">
<use xlink:href="#glyph-1-11" x="17.023326" y="130.259448"/>
</g>
<g fill="rgb(0%, 0%, 0%)" fill-opacity="1">
<use xlink:href="#glyph-1-4" x="17.023326" y="123.87209"/>
</g>
<g fill="rgb(0%, 0%, 0%)" fill-opacity="1">
<use xlink:href="#glyph-1-5" x="17.023326" y="117.964392"/>
</g>
<g fill="rgb(0%, 0%, 0%)" fill-opacity="1">
<use xlink:href="#glyph-1-12" x="17.023326" y="114.79991"/>
</g>
<g fill="rgb(0%, 0%, 0%)" fill-opacity="1">
<use xlink:href="#glyph-1-2" x="17.023326" y="109.158553"/>
</g>
<g fill="rgb(0%, 0%, 0%)" fill-opacity="1">
<use xlink:href="#glyph-1-3" x="17.023326" y="103.208043"/>
</g>
<g fill="rgb(0%, 0%, 0%)" fill-opacity="1">
<use xlink:href="#glyph-1-13" x="17.023326" y="98.440148"/>
</g>
<g fill="rgb(0%, 0%, 0%)" fill-opacity="1">
<use xlink:href="#glyph-1-2" x="17.023326" y="95.244034"/>
</g>
<g fill="rgb(0%, 0%, 0%)" fill-opacity="1">
<use xlink:href="#glyph-1-14" x="17.023326" y="89.293524"/>
</g>
<g fill="rgb(0%, 0%, 0%)" fill-opacity="1">
<use xlink:href="#glyph-1-9" x="17.023326" y="82.906166"/>
</g>
<g fill="rgb(0%, 0%, 0%)" fill-opacity="1">
<use xlink:href="#glyph-1-4" x="17.023326" y="79.710052"/>
</g>
<g fill="rgb(0%, 0%, 0%)" fill-opacity="1">
<use xlink:href="#glyph-1-15" x="17.023326" y="73.802355"/>
</g>
<g fill="rgb(0%, 0%, 0%)" fill-opacity="1">
<use xlink:href="#glyph-1-5" x="17.023326" y="68.693209"/>
</g>
<g fill="rgb(0%, 0%, 0%)" fill-opacity="1">
<use xlink:href="#glyph-1-16" x="17.023326" y="65.528727"/>
</g>
<g fill="rgb(0%, 0%, 0%)" fill-opacity="1">
<use xlink:href="#glyph-1-17" x="17.023326" y="61.634528"/>
</g>
<g fill="rgb(0%, 0%, 0%)" fill-opacity="1">
<use xlink:href="#glyph-1-18" x="17.023326" y="52.16247"/>
</g>
<path fill="none" stroke-width="0.8" stroke-linecap="square" stroke-linejoin="miter" stroke="rgb(12.156677%, 30.587769%, 47.450256%)" stroke-opacity="1" stroke-miterlimit="10" d="M 60.481274 48.601701 L 60.481274 285.119946 " transform="matrix(0.997264, 0, 0, -0.997264, -17.241569, 296.945282)"/>
<path fill="none" stroke-width="0.8" stroke-linecap="square" stroke-linejoin="miter" stroke="rgb(12.156677%, 30.587769%, 47.450256%)" stroke-opacity="1" stroke-miterlimit="10" d="M 60.481274 48.601701 L 483.838865 48.601701 " transform="matrix(0.997264, 0, 0, -0.997264, -17.241569, 296.945282)"/>
<g fill="rgb(12.156677%, 30.587769%, 47.450256%)" fill-opacity="1">
<use xlink:href="#glyph-2-0" x="43.072949" y="295.652828"/>
</g>
<g fill="rgb(12.156677%, 30.587769%, 47.450256%)" fill-opacity="1">
<use xlink:href="#glyph-2-1" x="48.790611" y="295.652828"/>
</g>
<g fill="rgb(12.156677%, 30.587769%, 47.450256%)" fill-opacity="1">
<use xlink:href="#glyph-2-2" x="53.605204" y="295.652828"/>
</g>
<g fill="rgb(12.156677%, 30.587769%, 47.450256%)" fill-opacity="1">
<use xlink:href="#glyph-2-3" x="58.060295" y="295.652828"/>
</g>
<g fill="rgb(12.156677%, 30.587769%, 47.450256%)" fill-opacity="1">
<use xlink:href="#glyph-2-3" x="60.461276" y="295.652828"/>
</g>
<g fill="rgb(12.156677%, 30.587769%, 47.450256%)" fill-opacity="1">
<use xlink:href="#glyph-2-4" x="62.862257" y="295.652828"/>
</g>
<g fill="rgb(12.156677%, 30.587769%, 47.450256%)" fill-opacity="1">
<use xlink:href="#glyph-2-5" x="67.289134" y="295.652828"/>
</g>
<g fill="rgb(12.156677%, 30.587769%, 47.450256%)" fill-opacity="1">
<use xlink:href="#glyph-2-6" x="72.103728" y="295.652828"/>
</g>
<g fill="rgb(12.156677%, 30.587769%, 47.450256%)" fill-opacity="1">
<use xlink:href="#glyph-2-4" x="76.886455" y="295.652828"/>
</g>
<g fill="rgb(12.156677%, 30.587769%, 47.450256%)" fill-opacity="1">
<use xlink:href="#glyph-2-7" x="81.313333" y="295.652828"/>
</g>
<g fill="rgb(12.156677%, 30.587769%, 47.450256%)" fill-opacity="1">
<use xlink:href="#glyph-2-8" x="83.698381" y="295.652828"/>
</g>
<g fill="rgb(12.156677%, 30.587769%, 47.450256%)" fill-opacity="1">
<use xlink:href="#glyph-2-9" x="87.53024" y="295.652828"/>
</g>
<g fill="rgb(12.156677%, 30.587769%, 47.450256%)" fill-opacity="1">
<use xlink:href="#glyph-2-10" x="92.344833" y="295.652828"/>
</g>
<g fill="rgb(12.156677%, 30.587769%, 47.450256%)" fill-opacity="1">
<use xlink:href="#glyph-2-11" x="94.745814" y="295.652828"/>
</g>
<g fill="rgb(12.156677%, 30.587769%, 47.450256%)" fill-opacity="1">
<use xlink:href="#glyph-2-4" x="97.754269" y="295.652828"/>
</g>
<g fill="rgb(12.156677%, 30.587769%, 47.450256%)" fill-opacity="1">
<use xlink:href="#glyph-2-7" x="102.181147" y="295.652828"/>
</g>
<g fill="rgb(12.156677%, 30.587769%, 47.450256%)" fill-opacity="1">
<use xlink:href="#glyph-2-12" x="104.566195" y="295.652828"/>
</g>
<g fill="rgb(12.156677%, 30.587769%, 47.450256%)" fill-opacity="1">
<use xlink:href="#glyph-2-13" x="108.757381" y="295.652828"/>
</g>
<g fill="rgb(12.156677%, 30.587769%, 47.450256%)" fill-opacity="1">
<use xlink:href="#glyph-2-5" x="113.260271" y="295.652828"/>
</g>
<g fill="rgb(12.156677%, 30.587769%, 47.450256%)" fill-opacity="1">
<use xlink:href="#glyph-2-8" x="118.074864" y="295.652828"/>
</g>
<g fill="rgb(12.156677%, 30.587769%, 47.450256%)" fill-opacity="1">
<use xlink:href="#glyph-2-11" x="121.906724" y="295.652828"/>
</g>
<g fill="rgb(12.156677%, 30.587769%, 47.450256%)" fill-opacity="1">
<use xlink:href="#glyph-2-14" x="124.915178" y="295.652828"/>
</g>
<g fill="rgb(12.156677%, 30.587769%, 47.450256%)" fill-opacity="1">
<use xlink:href="#glyph-2-9" x="128.483309" y="295.652828"/>
</g>
<g fill="rgb(12.156677%, 30.587769%, 47.450256%)" fill-opacity="1">
<use xlink:href="#glyph-2-12" x="133.297902" y="295.652828"/>
</g>
<g fill="rgb(12.156677%, 30.587769%, 47.450256%)" fill-opacity="1">
<use xlink:href="#glyph-2-11" x="137.489088" y="295.652828"/>
</g>
<g fill="rgb(12.156677%, 30.587769%, 47.450256%)" fill-opacity="1">
<use xlink:href="#glyph-2-4" x="140.497543" y="295.652828"/>
</g>
<g fill="rgb(12.156677%, 30.587769%, 47.450256%)" fill-opacity="1">
<use xlink:href="#glyph-2-15" x="144.92442" y="295.652828"/>
</g>
<g fill="rgb(12.156677%, 30.587769%, 47.450256%)" fill-opacity="1">
<use xlink:href="#glyph-2-7" x="149.707148" y="295.652828"/>
</g>
<g fill="rgb(12.156677%, 30.587769%, 47.450256%)" fill-opacity="1">
<use xlink:href="#glyph-2-16" x="152.092196" y="295.652828"/>
</g>
<g fill="rgb(12.156677%, 30.587769%, 47.450256%)" fill-opacity="1">
<use xlink:href="#glyph-2-10" x="158.496821" y="295.652828"/>
</g>
<g fill="rgb(12.156677%, 30.587769%, 47.450256%)" fill-opacity="1">
<use xlink:href="#glyph-2-11" x="160.897802" y="295.652828"/>
</g>
<g fill="rgb(12.156677%, 30.587769%, 47.450256%)" fill-opacity="1">
<use xlink:href="#glyph-2-1" x="163.906257" y="295.652828"/>
</g>
<g fill="rgb(12.156677%, 30.587769%, 47.450256%)" fill-opacity="1">
<use xlink:href="#glyph-2-7" x="168.72085" y="295.652828"/>
</g>
<g fill="rgb(12.156677%, 30.587769%, 47.450256%)" fill-opacity="1">
<use xlink:href="#glyph-2-17" x="171.105898" y="295.652828"/>
</g>
<g fill="rgb(12.156677%, 30.587769%, 47.450256%)" fill-opacity="1">
<use xlink:href="#glyph-2-18" x="175.856759" y="295.652828"/>
</g>
<g fill="rgb(12.156677%, 30.587769%, 47.450256%)" fill-opacity="1">
<use xlink:href="#glyph-2-19" x="180.607621" y="295.652828"/>
</g>
<g fill="rgb(12.156677%, 30.587769%, 47.450256%)" fill-opacity="1">
<use xlink:href="#glyph-2-7" x="187.711665" y="295.652828"/>
</g>
<g fill="rgb(12.156677%, 30.587769%, 47.450256%)" fill-opacity="1">
<use xlink:href="#glyph-2-20" x="190.096713" y="295.652828"/>
</g>
<g fill="rgb(12.156677%, 30.587769%, 47.450256%)" fill-opacity="1">
<use xlink:href="#glyph-2-4" x="194.879441" y="295.652828"/>
</g>
<g fill="rgb(12.156677%, 30.587769%, 47.450256%)" fill-opacity="1">
<use xlink:href="#glyph-2-14" x="199.306318" y="295.652828"/>
</g>
<g fill="rgb(12.156677%, 30.587769%, 47.450256%)" fill-opacity="1">
<use xlink:href="#glyph-2-7" x="202.874448" y="295.652828"/>
</g>
<g fill="rgb(12.156677%, 30.587769%, 47.450256%)" fill-opacity="1">
<use xlink:href="#glyph-2-21" x="205.259496" y="295.652828"/>
</g>
<g fill="rgb(12.156677%, 30.587769%, 47.450256%)" fill-opacity="1">
<use xlink:href="#glyph-2-22" x="210.293673" y="295.652828"/>
</g>
<g fill="rgb(12.156677%, 30.587769%, 47.450256%)" fill-opacity="1">
<use xlink:href="#glyph-2-23" x="216.294649" y="295.652828"/>
</g>
<g fill="rgb(12.156677%, 30.587769%, 47.450256%)" fill-opacity="1">
<use xlink:href="#glyph-2-7" x="221.748582" y="295.652828"/>
</g>
<g fill="rgb(12.156677%, 30.587769%, 47.450256%)" fill-opacity="1">
<use xlink:href="#glyph-2-24" x="224.13363" y="295.652828"/>
</g>
<g fill="rgb(12.156677%, 30.587769%, 47.450256%)" fill-opacity="1">
<use xlink:href="#glyph-2-9" x="228.916358" y="295.652828"/>
</g>
<g fill="rgb(12.156677%, 30.587769%, 47.450256%)" fill-opacity="1">
<use xlink:href="#glyph-2-12" x="233.730951" y="295.652828"/>
</g>
<g fill="rgb(12.156677%, 30.587769%, 47.450256%)" fill-opacity="1">
<use xlink:href="#glyph-2-25" x="237.922137" y="295.652828"/>
</g>
<g fill="rgb(12.156677%, 30.587769%, 47.450256%)" fill-opacity="1">
<use xlink:href="#glyph-2-4" x="242.456892" y="295.652828"/>
</g>
<g fill="rgb(12.156677%, 30.587769%, 47.450256%)" fill-opacity="1">
<use xlink:href="#glyph-2-11" x="246.88377" y="295.652828"/>
</g>
<g fill="rgb(12.156677%, 30.587769%, 47.450256%)" fill-opacity="1">
<use xlink:href="#glyph-2-26" x="249.892225" y="295.652828"/>
</g>
</svg>
